<svg width="64" height="20" viewBox="0 0 64 20" fill="none" xmlns="http://www.w3.org/2000/svg">
<path d="M0.000366211 20V0H12.0004V4H16.0004V16H12.0004V20H0.000366211ZM4.00037 8H11.8404V4H4.00037V8ZM4.00037 16H11.8404V12H4.00037V16ZM24.0004 20V0H36.0004V4H40.0004V8H36.0004V16H40.0004V20H36.0004V16H32.0004V12H28.0004V20H24.0004ZM28.0004 8H35.8404V4H28.0004V8ZM52.0004 20V16H48.0004V4H52.0004V0H60.0004V4H64.0004V16H60.0004V20H52.0004ZM52.0004 15.84H60.0004V4.16H52.0004V15.84Z" fill="#00FF57"/>
</svg>
