<svg width="39" height="28" viewBox="0 0 39 28" fill="none" xmlns="http://www.w3.org/2000/svg">
<mask id="path-1-outside-1_189_1956" maskUnits="userSpaceOnUse" x="9" y="4.42773" width="31" height="23" fill="black">
<rect fill="white" x="9" y="4.42773" width="31" height="23"/>
<path d="M23.0333 6.52014L21.6016 8.79109C16.2204 5.03908 5.30998 22.4415 22.4656 20.4421L23.8232 22.7871C0.373126 27.8967 11.802 0.521855 23.0333 6.52014ZM30.0938 16.2704C31.5995 16.2457 33.204 16.2211 34.9813 16.2457C34.611 14.2216 34.0926 12.2222 33.3274 10.2228C32.4882 11.0867 31.2293 13.6045 30.0938 16.2704ZM35.4009 18.7882C33.0806 18.6648 30.8837 18.8623 29.0077 18.9857C28.1437 21.306 27.5266 23.4042 27.5019 24.3422L24.8113 24.7125C24.8113 22.8611 28.9336 7.50751 32.9572 7.2113C35.006 7.03851 36.956 10.4943 38.4864 21.1332L38.9801 25.7245L36.3142 26.0948C35.9686 23.6017 35.7465 21.1826 35.4009 18.7882Z"/>
</mask>
<path d="M23.0333 6.52014L21.6016 8.79109C16.2204 5.03908 5.30998 22.4415 22.4656 20.4421L23.8232 22.7871C0.373126 27.8967 11.802 0.521855 23.0333 6.52014ZM30.0938 16.2704C31.5995 16.2457 33.204 16.2211 34.9813 16.2457C34.611 14.2216 34.0926 12.2222 33.3274 10.2228C32.4882 11.0867 31.2293 13.6045 30.0938 16.2704ZM35.4009 18.7882C33.0806 18.6648 30.8837 18.8623 29.0077 18.9857C28.1437 21.306 27.5266 23.4042 27.5019 24.3422L24.8113 24.7125C24.8113 22.8611 28.9336 7.50751 32.9572 7.2113C35.006 7.03851 36.956 10.4943 38.4864 21.1332L38.9801 25.7245L36.3142 26.0948C35.9686 23.6017 35.7465 21.1826 35.4009 18.7882Z" fill="#C00D08"/>
<path d="M23.0333 6.52014L23.6858 6.93152L24.1279 6.23025L23.3967 5.83971L23.0333 6.52014ZM21.6016 8.79109L21.1604 9.42385L21.8232 9.88599L22.2542 9.20247L21.6016 8.79109ZM22.4656 20.4421L23.1331 20.0556L22.8794 19.6172L22.3763 19.6759L22.4656 20.4421ZM23.8232 22.7871L23.9874 23.5408L25.0206 23.3157L24.4908 22.4006L23.8232 22.7871ZM22.3808 6.10876L20.9491 8.37971L22.2542 9.20247L23.6858 6.93152L22.3808 6.10876ZM22.0428 8.15833C20.3012 6.94403 18.2276 7.5311 16.6075 8.68076C14.9646 9.84661 13.5337 11.7396 12.8533 13.7073C12.175 15.6688 12.192 17.901 13.7938 19.4859C15.3551 21.0306 18.1958 21.7163 22.5549 21.2083L22.3763 19.6759C18.1576 20.1676 15.9287 19.4278 14.8789 18.3891C13.8696 17.3906 13.7338 15.8816 14.3113 14.2115C14.8867 12.5475 16.1202 10.9183 17.5003 9.93893C18.9033 8.94338 20.2114 8.76215 21.1604 9.42385L22.0428 8.15833ZM21.798 20.8286L23.1556 23.1736L24.4908 22.4006L23.1331 20.0556L21.798 20.8286ZM23.659 22.0334C17.8852 23.2915 14.5059 22.4914 12.7288 20.9713C10.9779 19.4736 10.5475 17.0654 11.1722 14.5031C11.7961 11.9435 13.4449 9.40543 15.5712 7.8761C17.6739 6.36377 20.1781 5.8698 22.6699 7.20056L23.3967 5.83971C20.2728 4.17134 17.1366 4.84987 14.6704 6.62363C12.2279 8.38041 10.3792 11.242 9.67328 14.1377C8.96806 17.0306 9.37541 20.1331 11.726 22.1437C14.0503 24.1319 18.0362 24.8375 23.9874 23.5408L23.659 22.0334ZM30.0938 16.2704L29.3841 15.9682L28.9185 17.0612L30.1064 17.0417L30.0938 16.2704ZM34.9813 16.2457L34.9706 17.0171L35.9089 17.0301L35.7401 16.1069L34.9813 16.2457ZM33.3274 10.2228L34.0479 9.94706L33.616 8.81867L32.7741 9.68529L33.3274 10.2228ZM35.4009 18.7882L36.1644 18.678L36.074 18.0516L35.4419 18.0179L35.4009 18.7882ZM29.0077 18.9857L28.957 18.216L28.459 18.2488L28.2848 18.7165L29.0077 18.9857ZM27.5019 24.3422L27.6071 25.1064L28.2558 25.0171L28.2731 24.3625L27.5019 24.3422ZM24.8113 24.7125H24.04V25.5973L24.9165 25.4766L24.8113 24.7125ZM32.9572 7.2113L33.0138 7.98064L33.022 7.97995L32.9572 7.2113ZM38.4864 21.1332L39.2534 21.0508L39.2519 21.0371L39.25 21.0234L38.4864 21.1332ZM38.9801 25.7245L39.0862 26.4886L39.8271 26.3857L39.7471 25.642L38.9801 25.7245ZM36.3142 26.0948L35.5501 26.2007L35.6561 26.965L36.4203 26.8588L36.3142 26.0948ZM30.1064 17.0417C31.6123 17.017 33.2062 16.9926 34.9706 17.0171L34.992 15.4744C33.2018 15.4496 31.5868 15.4745 30.0811 15.4992L30.1064 17.0417ZM35.7401 16.1069C35.363 14.0455 34.8331 11.9989 34.0479 9.94706L32.607 10.4985C33.3521 12.4455 33.8591 14.3978 34.2225 16.3846L35.7401 16.1069ZM32.7741 9.68529C32.2681 10.2062 31.6992 11.1437 31.1386 12.2126C30.5643 13.3074 29.9569 14.6234 29.3841 15.9682L30.8035 16.5727C31.3662 15.2516 31.9559 13.9757 32.5048 12.9292C33.0673 11.8566 33.5475 11.1033 33.8807 10.7603L32.7741 9.68529ZM35.4419 18.0179C33.0638 17.8914 30.8092 18.0941 28.957 18.216L29.0583 19.7554C30.9582 19.6304 33.0973 19.4382 35.3599 19.5585L35.4419 18.0179ZM28.2848 18.7165C27.8479 19.8899 27.4706 21.0145 27.1982 21.9711C26.9323 22.9048 26.746 23.7465 26.7308 24.3219L28.2731 24.3625C28.2826 23.9999 28.4172 23.3235 28.682 22.3936C28.9403 21.4865 29.3035 20.4019 29.7306 19.2549L28.2848 18.7165ZM27.3968 23.578L24.7062 23.9483L24.9165 25.4766L27.6071 25.1064L27.3968 23.578ZM25.5827 24.7125C25.5827 24.5683 25.6308 24.1968 25.7525 23.5936C25.8694 23.0144 26.0424 22.2767 26.2642 21.4352C26.708 19.7519 27.3415 17.6747 28.0981 15.6486C28.8572 13.6155 29.7281 11.667 30.6394 10.222C31.0956 9.49862 31.5438 8.93079 31.9704 8.54361C32.4024 8.15147 32.7505 7.99998 33.0138 7.9806L32.9005 6.442C32.1579 6.49666 31.497 6.88978 30.9335 7.40121C30.3646 7.91762 29.8306 8.61235 29.3345 9.399C28.3412 10.974 27.4271 13.0351 26.6528 15.1089C25.8758 17.1896 25.2273 19.3164 24.7724 21.0419C24.545 21.9047 24.3645 22.6726 24.2402 23.2885C24.1207 23.8805 24.04 24.3938 24.04 24.7125H25.5827ZM33.022 7.97995C33.2758 7.95855 33.5742 8.03346 33.9414 8.37923C34.3278 8.74298 34.7604 9.38361 35.2076 10.4228C36.1012 12.4988 36.9601 15.9404 37.7229 21.2431L39.25 21.0234C38.4823 15.6871 37.6011 12.0813 36.6247 9.81292C36.1371 8.67992 35.6024 7.82406 34.999 7.25599C34.3766 6.66992 33.663 6.37765 32.8923 6.44264L33.022 7.97995ZM37.7195 21.2157L38.2132 25.807L39.7471 25.642L39.2534 21.0508L37.7195 21.2157ZM38.874 24.9605L36.2081 25.3307L36.4203 26.8588L39.0862 26.4886L38.874 24.9605ZM37.0783 25.9889C36.9069 24.7521 36.7659 23.5329 36.6237 22.315C36.4819 21.1002 36.3389 19.887 36.1644 18.678L34.6374 18.8984C34.8085 20.0838 34.9494 21.2774 35.0914 22.4939C35.2331 23.7075 35.376 24.9443 35.5501 26.2007L37.0783 25.9889Z" fill="black" mask="url(#path-1-outside-1_189_1956)"/>
</svg>
