<svg width="576" height="360" viewBox="0 0 576 360" fill="none" xmlns="http://www.w3.org/2000/svg">
<g filter="url(#filter0_d_187_2709)">
<path d="M34.3611 20.1094L105.796 54.8438L163.667 0L189.89 76.7812L273.08 20.1094V76.7812L304.728 0L349.036 76.7812L390.631 44.7891L405.099 76.7812L498.236 44.7891V96.8906L576 76.7812L518.129 167.273L576 212.062L534.405 244.055L552.49 336.375L498.236 290.672L472.917 336.375L420.471 314.438L355.366 347.344L289.356 320.836L247.761 351L207.071 314.438L163.667 336.375L137.444 290.672L63.2967 343.688L92.2323 254.109H24.4144L48.8289 199.266L0 141.68L59.6797 113.344L34.3611 20.1094Z" fill="#7FFFE0"/>
<path d="M35.9028 21.971L105.359 55.7431L105.981 56.0458L106.484 55.5696L163.224 1.7974L188.944 77.1044L189.368 78.3469L190.453 77.6077L272.08 22.0006V76.7812L274.005 77.1623L304.878 2.26045L348.17 77.2811L348.741 78.2701L349.646 77.5739L390.24 46.3514L404.188 77.1933L404.563 78.0227L405.424 77.727L497.236 46.1899V96.8906V98.1821L498.486 97.8588L573.786 78.3866L517.286 166.735L516.794 167.505L517.517 168.064L574.363 212.06L533.795 243.262L533.305 243.639L533.424 244.247L550.963 333.781L498.88 289.907L497.95 289.124L497.361 290.187L472.476 335.107L420.857 313.515L420.431 313.337L420.02 313.545L355.319 346.247L289.729 319.908L289.216 319.702L288.769 320.026L247.829 349.716L207.739 313.694L207.23 313.236L206.62 313.545L164.063 335.055L138.312 290.174L137.762 289.216L136.863 289.858L65.1795 341.112L93.1839 254.417L93.6062 253.109H92.2323H25.9542L49.7425 199.672L49.998 199.098L49.5916 198.619L1.60399 142.025L60.1087 114.247L60.8639 113.889L60.6448 113.082L35.9028 21.971Z" stroke="black" stroke-width="2"/>
</g>
<defs>
<filter id="filter0_d_187_2709" x="0" y="0" width="576" height="360" filterUnits="userSpaceOnUse" color-interpolation-filters="sRGB">
<feFlood flood-opacity="0" result="BackgroundImageFix"/>
<feColorMatrix in="SourceAlpha" type="matrix" values="0 0 0 0 0 0 0 0 0 0 0 0 0 0 0 0 0 0 127 0" result="hardAlpha"/>
<feOffset dy="9"/>
<feComposite in2="hardAlpha" operator="out"/>
<feColorMatrix type="matrix" values="0 0 0 0 0 0 0 0 0 0 0 0 0 0 0 0 0 0 0.14 0"/>
<feBlend mode="normal" in2="BackgroundImageFix" result="effect1_dropShadow_187_2709"/>
<feBlend mode="normal" in="SourceGraphic" in2="effect1_dropShadow_187_2709" result="shape"/>
</filter>
</defs>
</svg>
