<svg width="516" height="406" viewBox="0 0 516 406" fill="none" xmlns="http://www.w3.org/2000/svg">
<g filter="url(#filter0_d_187_2592)">
<path d="M30.7818 22.7448L94.7755 62.0312L146.619 0L170.11 86.8438L244.634 22.7448V86.8438L272.986 0L312.678 86.8438L349.94 50.6589L362.901 86.8438L446.336 50.6589V109.589L516 86.8438L464.157 189.195L516 239.854L478.738 276.039L494.939 380.458L446.336 328.766L423.655 380.458L376.672 355.646L318.349 392.865L259.215 362.883L221.953 397L185.501 355.646L146.619 380.458L123.127 328.766L56.7033 388.729L82.6248 287.411H21.8713L43.7425 225.38L0 160.247L53.4631 128.198L30.7818 22.7448Z" fill="#7FFFE0"/>
<path d="M32.251 24.8202L94.2523 62.8835L94.9887 63.3355L95.5428 62.6725L146.155 2.11451L169.145 87.1049L169.559 88.6366L170.762 87.6019L243.634 24.9239V86.8438L245.585 87.1541L273.141 2.74587L311.769 87.2594L312.358 88.5487L313.375 87.5611L349.523 52.4584L361.96 87.181L362.32 88.1859L363.299 87.7612L445.336 52.1825V109.589V110.967L446.646 110.539L514.018 88.5426L463.265 188.743L462.933 189.398L463.458 189.911L514.567 239.852L478.041 275.322L477.67 275.682L477.75 276.192L493.456 377.421L447.064 328.081L446.028 326.978L445.42 328.364L423.171 379.072L377.139 354.762L376.624 354.49L376.134 354.803L318.292 391.715L259.667 361.991L259.05 361.678L258.54 362.145L222.029 395.574L186.251 354.985L185.685 354.342L184.963 354.803L147.052 378.995L124.038 328.352L123.472 327.107L122.457 328.023L58.4937 385.766L83.5936 287.659L83.9129 286.411H82.6248H23.2842L44.6856 225.713L44.8525 225.239L44.5727 224.823L1.41709 160.564L53.9773 129.056L54.5913 128.688L54.4408 127.988L32.251 24.8202Z" stroke="black" stroke-width="2"/>
</g>
<defs>
<filter id="filter0_d_187_2592" x="0" y="0" width="516" height="406" filterUnits="userSpaceOnUse" color-interpolation-filters="sRGB">
<feFlood flood-opacity="0" result="BackgroundImageFix"/>
<feColorMatrix in="SourceAlpha" type="matrix" values="0 0 0 0 0 0 0 0 0 0 0 0 0 0 0 0 0 0 127 0" result="hardAlpha"/>
<feOffset dy="9"/>
<feComposite in2="hardAlpha" operator="out"/>
<feColorMatrix type="matrix" values="0 0 0 0 0 0 0 0 0 0 0 0 0 0 0 0 0 0 0.14 0"/>
<feBlend mode="normal" in2="BackgroundImageFix" result="effect1_dropShadow_187_2592"/>
<feBlend mode="normal" in="SourceGraphic" in2="effect1_dropShadow_187_2592" result="shape"/>
</filter>
</defs>
</svg>
