<svg width="600" height="350" viewBox="0 0 600 350" fill="none" xmlns="http://www.w3.org/2000/svg">
<g filter="url(#filter0_d_187_2587)">
<path d="M35.7928 19.5365L110.204 53.2812L170.487 0L197.802 74.5938L284.458 19.5365V74.5938L317.425 0L363.579 74.5938L406.907 43.513L421.978 74.5938L518.995 43.513V94.1302L600 74.5938L539.717 162.508L600 206.021L556.672 237.102L575.51 326.792L518.995 282.391L492.622 326.792L437.991 305.479L370.173 337.448L301.413 311.695L258.085 341L215.699 305.479L170.487 326.792L143.171 282.391L65.9341 333.896L96.0754 246.87H25.4317L50.8634 193.589L0 137.643L62.1664 110.115L35.7928 19.5365Z" fill="#7FFFE0"/>
<path d="M37.3611 21.3457L109.791 54.192L110.381 54.4595L110.866 54.0305L170.051 1.71939L196.863 74.9376L197.29 76.1038L198.338 75.4378L283.458 21.3566V74.5938L285.373 74.998L317.573 2.13938L362.729 75.1199L363.292 76.0303L364.162 75.4063L406.526 45.0176L421.078 75.0301L421.457 75.8108L422.283 75.5461L517.995 44.8835V94.1302V95.4001L519.23 95.1023L597.702 76.1766L538.893 161.942L538.341 162.747L539.132 163.319L598.288 206.018L556.089 236.289L555.559 236.669L555.693 237.307L573.967 324.307L519.613 281.604L518.717 280.901L518.136 281.88L492.195 325.552L438.354 304.548L437.953 304.391L437.564 304.575L370.128 336.363L301.764 310.759L301.28 310.578L300.853 310.867L258.149 339.749L216.341 304.713L215.851 304.302L215.272 304.575L170.87 325.506L144.023 281.867L143.479 280.983L142.616 281.559L67.8515 331.415L97.0203 247.197L97.48 245.87H96.0754H27.0171L51.7659 194.019L52.0553 193.413L51.6033 192.916L1.67249 137.996L62.5713 111.029L63.3711 110.675L63.1265 109.835L37.3611 21.3457Z" stroke="black" stroke-width="2"/>
</g>
<defs>
<filter id="filter0_d_187_2587" x="0" y="0" width="600" height="350" filterUnits="userSpaceOnUse" color-interpolation-filters="sRGB">
<feFlood flood-opacity="0" result="BackgroundImageFix"/>
<feColorMatrix in="SourceAlpha" type="matrix" values="0 0 0 0 0 0 0 0 0 0 0 0 0 0 0 0 0 0 127 0" result="hardAlpha"/>
<feOffset dy="9"/>
<feComposite in2="hardAlpha" operator="out"/>
<feColorMatrix type="matrix" values="0 0 0 0 0 0 0 0 0 0 0 0 0 0 0 0 0 0 0.14 0"/>
<feBlend mode="normal" in2="BackgroundImageFix" result="effect1_dropShadow_187_2587"/>
<feBlend mode="normal" in="SourceGraphic" in2="effect1_dropShadow_187_2587" result="shape"/>
</filter>
</defs>
</svg>
