<svg width="565" height="261" viewBox="0 0 565 261" fill="none" xmlns="http://www.w3.org/2000/svg">
<mask id="path-1-inside-1_187_2584" fill="white">
<path fill-rule="evenodd" clip-rule="evenodd" d="M530.469 260.516L564.857 253.382L546.827 223.244L541.662 235.012L6.29524 0.0543104L0.669017 12.874L536.036 247.832L530.469 260.516Z"/>
</mask>
<path fill-rule="evenodd" clip-rule="evenodd" d="M530.469 260.516L564.857 253.382L546.827 223.244L541.662 235.012L6.29524 0.0543104L0.669017 12.874L536.036 247.832L530.469 260.516Z" fill="#DB2232"/>
<path d="M564.857 253.382L565.263 255.34L568.017 254.769L566.573 252.355L564.857 253.382ZM530.469 260.516L528.638 259.712L527.08 263.261L530.875 262.474L530.469 260.516ZM546.827 223.244L548.543 222.217L546.553 218.891L544.995 222.44L546.827 223.244ZM541.662 235.012L540.858 236.843L542.69 237.647L543.493 235.816L541.662 235.012ZM6.29524 0.0543104L7.09899 -1.77708L5.2676 -2.58083L4.46385 -0.749437L6.29524 0.0543104ZM0.669017 12.874L-1.16237 12.0703L-1.96612 13.9017L-0.13473 14.7054L0.669017 12.874ZM536.036 247.832L537.867 248.636L538.671 246.804L536.839 246L536.036 247.832ZM564.45 251.424L530.063 258.557L530.875 262.474L565.263 255.34L564.45 251.424ZM545.11 224.271L563.14 254.409L566.573 252.355L548.543 222.217L545.11 224.271ZM543.493 235.816L548.658 224.048L544.995 222.44L539.831 234.208L543.493 235.816ZM5.4915 1.8857L540.858 236.843L542.466 233.181L7.09899 -1.77708L5.4915 1.8857ZM2.50041 13.6778L8.12664 0.858057L4.46385 -0.749437L-1.16237 12.0703L2.50041 13.6778ZM536.839 246L1.47276 11.0427L-0.13473 14.7054L535.232 249.663L536.839 246ZM532.301 261.319L537.867 248.636L534.204 247.028L528.638 259.712L532.301 261.319Z" fill="black" mask="url(#path-1-inside-1_187_2584)"/>
</svg>
