<svg width="506" height="116" viewBox="0 0 506 116" fill="none" xmlns="http://www.w3.org/2000/svg">
<mask id="path-1-inside-1_187_2715" fill="white">
<path fill-rule="evenodd" clip-rule="evenodd" d="M26.6293 75.9783L0.741363 101.524L34.1118 115.988L31.7493 103.355L505.677 14.7224L503.103 0.96102L29.1756 89.5939L26.6293 75.9783Z"/>
</mask>
<path fill-rule="evenodd" clip-rule="evenodd" d="M26.6293 75.9783L0.741363 101.524L34.1118 115.988L31.7493 103.355L505.677 14.7224L503.103 0.96102L29.1756 89.5939L26.6293 75.9783Z" fill="#DB2232"/>
<path d="M0.741363 101.524L-0.663416 100.101L-2.77194 102.181L-0.0539933 103.359L0.741363 101.524ZM26.6293 75.9783L28.5952 75.6106L27.9033 71.9113L25.2245 74.5547L26.6293 75.9783ZM34.1118 115.988L33.3164 117.823L36.7695 119.32L36.0777 115.62L34.1118 115.988ZM31.7493 103.355L31.3816 101.389L29.4157 101.757L29.7833 103.723L31.7493 103.355ZM505.677 14.7224L506.044 16.6883L508.01 16.3207L507.642 14.3548L505.677 14.7224ZM503.103 0.96102L505.069 0.593358L504.701 -1.37256L502.735 -1.0049L503.103 0.96102ZM29.1756 89.5939L27.2097 89.9615L27.5774 91.9275L29.5433 91.5598L29.1756 89.5939ZM2.14611 102.948L28.0341 77.4019L25.2245 74.5547L-0.663416 100.101L2.14611 102.948ZM34.9071 114.153L1.53669 99.6892L-0.0539933 103.359L33.3164 117.823L34.9071 114.153ZM29.7833 103.723L32.1459 116.355L36.0777 115.62L33.7152 102.988L29.7833 103.723ZM505.309 12.7565L31.3816 101.389L32.1169 105.321L506.044 16.6883L505.309 12.7565ZM501.137 1.32868L503.711 15.0901L507.642 14.3548L505.069 0.593358L501.137 1.32868ZM29.5433 91.5598L503.471 2.92694L502.735 -1.0049L28.808 87.628L29.5433 91.5598ZM24.6634 76.346L27.2097 89.9615L31.1415 89.2262L28.5952 75.6106L24.6634 76.346Z" fill="black" mask="url(#path-1-inside-1_187_2715)"/>
</svg>
