<svg width="276" height="111" viewBox="0 0 276 111" fill="none" xmlns="http://www.w3.org/2000/svg">
<path d="M7.49979 93.1096L3.64542 24.4386L251.252 2V68.7032L7.49979 93.1096Z" fill="#E75756" stroke="black" stroke-width="3.18738" stroke-linejoin="round"/>
<path d="M7.4998 93.1095L28.1218 108.453L274 84.7773L251.252 68.7031L7.4998 93.1095Z" fill="#AE3534" stroke="black" stroke-width="3.18738" stroke-linejoin="round"/>
<path d="M274 84.7773L271.848 19.005L251.252 2V68.7032L274 84.7773Z" fill="#AE3534" stroke="black" stroke-width="3.18738" stroke-linejoin="round"/>
<path d="M61.4572 32.6418L63.4688 32.4315C70.8788 31.9908 74.7417 33.2868 75.0574 36.3198L75.3715 39.3372C75.5358 40.9156 74.1269 43.6595 71.1448 47.5689C75.7147 47.0913 79.02 48.4405 81.0607 51.6164L81.515 55.9801C81.8114 58.8273 78.9166 62.5243 72.8308 67.071C69.7932 68.7441 67.0726 69.7063 64.6691 69.9576C64.7851 71.0717 64.0591 71.7107 62.4911 71.8746C61.6555 71.9619 60.4546 71.2949 58.8885 69.8735L58.7838 68.8676C59.276 67.0851 59.4486 65.4872 59.3015 64.0739C59.972 64.0038 60.2125 57.6487 60.0229 45.0085C60.4389 42.4935 60.5529 40.3333 60.365 38.528L60.2603 37.5222C60.2399 37.3262 59.9252 36.457 59.3163 34.9147C59.1756 33.5633 59.8893 32.8057 61.4572 32.6418ZM64.9642 37.0306L64.9997 37.371C65.252 39.7953 65.1292 42.9731 64.6312 46.9045L64.9717 46.8689C67.2302 45.225 69.1222 42.7643 70.6476 39.4868L70.4737 37.8156C70.4339 37.4339 68.5975 37.1722 64.9642 37.0306ZM64.1794 65.2534L65.1852 65.1483C69.0226 64.7472 72.903 61.8545 76.8265 56.4701L76.5124 53.4526C76.4265 52.6274 74.4653 52.2692 70.6287 52.3782L65.2595 52.9394C64.8159 52.9858 64.5848 56.1749 64.5661 62.5069C64.1225 62.5532 63.9936 63.4687 64.1794 65.2534ZM84.207 41.1199L85.5532 40.9792C85.9039 40.9425 86.3942 41.3449 87.0241 42.1864C86.879 45.1006 86.8318 46.8001 86.8822 47.285C87.3128 51.4218 88.4782 53.9018 90.3784 54.7252L91.7091 54.5861C94.0817 54.3381 95.2565 51.4988 95.2334 46.068C95.1958 45.707 94.9427 44.3777 94.4742 42.0803C94.7296 40.9274 95.3421 40.3002 96.3118 40.1989C97.5187 40.0727 98.4772 41.6671 99.1872 44.9821L98.8623 45.0161L99.2565 45.6475C99.2801 45.8745 99.1836 45.9993 98.967 46.0219L99.3612 46.6533C98.8716 54.1712 96.2387 58.1797 91.4626 58.6789L91.4271 58.3385C91.2002 58.3622 91.0985 58.4875 91.1221 58.7145C86.2975 57.9465 83.5663 54.4986 82.9284 48.3709C82.708 43.649 83.1342 41.232 84.207 41.1199ZM113.204 38.0892L114.21 37.984C114.561 37.9474 115.056 38.3492 115.696 39.1896L115.837 40.5358C115.888 41.031 114.042 46.0836 110.297 55.6936L108.056 66.7681L107.411 67.1797L106.08 67.3188C105.606 67.2744 105.099 66.7643 104.56 65.7883C104.769 62.2937 105.723 57.3344 107.422 50.9103C103.32 46.2708 101.216 43.4353 101.109 42.4037C101.448 41.5548 102.06 40.9276 102.946 40.5222C103.974 40.5816 106.008 42.7415 109.048 47.0017L109.714 46.9322C109.683 46.633 110.467 44.4028 112.067 40.2415C111.965 39.2615 112.344 38.544 113.204 38.0892ZM148.527 24.9023C149.817 24.7675 150.694 25.5831 151.159 27.349L150.819 27.3845C155.354 47.0059 157.715 57.7193 157.903 59.5246C157.76 61.3541 156.956 62.3454 155.491 62.4985L154.826 62.5681C153.391 61.8107 152.616 60.875 152.5 59.7609C148.463 54.635 143.441 48.7152 137.434 42.0014C137.41 41.7745 136.464 40.2935 134.594 37.5586L134.254 37.5942L134.323 38.2595C136.505 52.7145 137.941 61.0427 138.629 63.2442C138.304 64.6338 137.476 65.3982 136.146 65.5372C134.361 65.7238 133.108 62.3508 132.386 55.4184C130.686 45.5954 129.341 37.0335 128.352 29.7328C128.564 28.772 129.052 28.0432 129.813 27.5465L131.16 27.4058C133.505 28.4016 137.113 32.6547 141.982 40.1651C143.898 42.5407 146.965 45.9535 151.182 50.4036L151.146 50.0632C148.725 39.8254 147.132 32.082 146.366 26.8332C146.559 25.6764 147.279 25.0327 148.527 24.9023ZM166.264 33.9044C171.117 34.9509 173.673 36.7173 173.932 39.2034L174.072 40.5497C174.44 44.0778 172.294 47.3524 167.634 50.3735L164.957 50.6533C162.853 50.8732 160.752 49.174 158.655 45.5556L158.619 45.2151L158.959 45.1796L158.55 44.5497C159.715 39.7144 161.435 36.7085 163.711 35.532C163.65 34.944 164.501 34.4015 166.264 33.9044ZM162.678 45.1351C163.828 46.3705 164.904 46.9359 165.904 46.8314C169.102 44.9954 170.557 42.6951 170.27 39.9304C169.969 39.2423 168.773 38.5747 166.682 37.9277C163.758 40.2877 162.423 42.6902 162.678 45.1351ZM177.769 32.0293C179.11 31.8891 180.409 35.7057 181.666 43.4789L182.007 43.4433C183.094 37.4585 183.911 34.4376 184.458 34.3804C184.867 34.1082 185.191 33.9597 185.428 33.9349C186.986 33.7721 188.044 36.3729 188.602 41.7372C189.056 41.6898 189.365 42.4501 189.528 44.0181L189.853 43.9842C190.651 38.8325 191.902 34.5201 193.605 31.0467L194.611 30.9416C195.725 30.8251 196.352 31.4375 196.492 32.7785L196.527 33.119C195.161 37.3288 194.008 42.5331 193.069 48.7319C192.491 49.8976 191.777 50.6501 190.926 50.9893C189.606 51.1273 187.907 48.9324 185.83 44.4047L185.505 44.4386C185.777 47.0589 184.719 48.8641 182.33 49.8542C180.319 50.0645 178.698 47.5225 177.469 42.2282C176.265 37.1712 175.616 34.1887 175.521 33.2809C176.266 32.5252 177.015 32.108 177.769 32.0293Z" fill="white"/>
</svg>
