<svg width="1224" height="852" viewBox="0 0 1224 852" fill="none" xmlns="http://www.w3.org/2000/svg">
<path d="M464.556 529.916L464.606 530.1L464.615 530.117C467.808 541.873 470.134 553.639 470.508 566.266C470.702 572.957 470.241 579.655 469 586.218C465.847 602.862 457.493 617.909 445.766 630.139L445.766 630.139C431.511 645.01 413.216 655.677 394.292 663.946C382.48 669.108 370.26 673.362 357.866 677.004L357.865 677.004C350.956 679.037 343.981 680.878 336.976 682.56L337.326 684.019L336.976 682.56C333.283 683.448 329.58 684.291 325.865 685.09L325.862 685.09C325.239 685.226 324.424 685.475 323.604 685.727L323.595 685.73L323.549 685.743C322.709 686.001 321.814 686.275 320.928 686.504C320.021 686.739 319.181 686.91 318.476 686.969C317.73 687.031 317.356 686.946 317.224 686.88C316.684 686.601 316.25 686.058 315.612 685.171L304.022 668.989L292.43 652.806L280.838 636.618C279.991 635.435 279.043 634.231 278.091 633.03L277.832 632.703C276.959 631.602 276.086 630.502 275.254 629.384C273.416 626.913 271.876 624.48 271.1 622.056C267.687 611.377 265.013 600.509 262.312 589.533C260.93 583.915 259.541 578.27 258.042 572.607C253.643 555.985 249.236 539.372 244.819 522.751C235.894 489.155 226.934 455.561 217.938 421.986C208.818 387.926 199.662 353.877 190.471 319.839C181.275 285.758 172.044 251.688 162.779 217.628C217.468 197.705 263.386 190.614 300.589 196.169C315.29 198.366 329.082 204.471 340.297 214.208L340.297 214.208C360.446 231.697 368.917 256.488 377.432 281.408C377.576 281.832 377.721 282.256 377.866 282.68L379.286 282.195L377.866 282.68C379.992 288.898 382.141 295.104 384.289 301.308C393.606 328.213 402.904 355.065 410.219 382.534C412.699 391.851 414.265 400.648 414.945 408.946C414.988 409.567 415.331 410.092 415.529 410.373C415.781 410.731 416.108 411.108 416.457 411.477C417.16 412.219 418.081 413.064 418.999 413.877C419.572 414.385 420.171 414.903 420.727 415.385C421.056 415.67 421.371 415.942 421.656 416.192C422.477 416.909 423.014 417.402 423.217 417.64C425.642 420.493 427.82 423.567 429.754 426.782L429.755 426.783C434.019 433.862 436.815 441.562 439.349 449.55L439.349 449.551C442.445 459.296 445.545 469.05 448.645 478.804C451.712 488.455 454.779 498.106 457.843 507.748L457.873 507.842C460.254 515.335 462.569 522.62 464.556 529.916ZM321.566 523.122L320.303 523.384L320.373 524.672L320.373 524.681L320.381 524.818L320.413 524.951L323.074 536.005L323.481 537.693L325.092 537.045C337.945 531.877 348.906 526.421 357.958 520.643L357.041 517.883C346.492 518.66 334.663 520.409 321.566 523.122Z" fill="#D2912F" stroke="black" stroke-width="3"/>
<path d="M864.794 349.45L865.414 348.968C877.338 339.709 888.995 335.274 900.347 335.95C911.707 336.627 922.481 342.404 932.665 352.995L932.665 352.996C946.707 367.604 954.852 385.138 957.095 405.543L957.189 406.397L956.5 406.91C952.689 409.748 948.587 412.253 944.185 414.408L864.794 349.45ZM864.794 349.45L864.795 349.462M864.794 349.45L864.795 349.462M864.795 349.462C860.841 352.577 857.24 355.898 853.977 359.426L853.457 359.988L853.607 360.738C857.773 381.626 865.808 397.818 877.804 409.137L878.834 408.046L864.795 349.462ZM986.235 494.784L985.478 496.174C970.126 524.361 949.602 549.099 918.66 560.793L919.19 562.196L918.66 560.793C895.852 569.415 875.78 571.259 858.37 566.51C840.979 561.765 826.055 550.391 813.62 532.211L812.382 533.058L813.62 532.211C787.422 493.91 780.741 446.475 785.279 400.862L785.279 400.861C786.165 391.947 786.941 382.631 787.738 373.059C790.531 339.516 793.587 302.824 802.562 269.216C814.082 226.079 835.27 188.387 877.887 169.266C900.39 159.171 921.723 156.075 941.933 159.87C962.146 163.666 981.373 174.381 999.614 192.143C1035.95 227.551 1049.58 279.595 1040.11 348.656C1034.48 389.762 1016.53 429.426 999.277 467.554C998.049 470.269 996.824 472.976 995.607 475.676C992.694 482.128 989.589 488.536 986.235 494.784Z" fill="#D2912F" stroke="black" stroke-width="3"/>
<path d="M707.901 439.507L706.753 440.629L707.951 441.698L707.96 441.707L708.765 442.425L708.862 442.37C708.882 442.391 708.902 442.412 708.923 442.434C709.45 442.982 710.2 443.845 711.156 445.004C713.059 447.313 715.695 450.695 718.838 454.831C725.121 463.096 733.39 474.313 741.795 485.841C758.605 508.896 775.939 533.162 778.976 537.461L778.977 537.461C783.038 543.207 789.985 553.976 795.933 563.339C798.903 568.014 801.619 572.328 803.591 575.473C804.578 577.046 805.378 578.326 805.932 579.213L806.153 579.567C806.279 579.769 806.388 579.944 806.479 580.089L806.387 580.543C806.253 581.21 806.058 582.173 805.82 583.356C805.342 585.723 804.686 588.97 803.972 592.495C802.543 599.547 800.884 607.702 799.958 612.137C798.854 617.414 797.213 625.76 795.851 632.779C795.169 636.29 794.556 639.472 794.114 641.776C793.893 642.928 793.714 643.861 793.591 644.505L793.54 644.773C793.236 644.923 792.832 645.121 792.339 645.364C791.14 645.954 789.413 646.802 787.303 647.836C783.084 649.905 777.334 652.717 771.21 655.689C759.63 661.31 746.76 667.485 740.356 670.311C736.436 665.228 732.631 660.304 728.928 655.511C683.918 597.253 653.903 558.403 613.235 490.674L612.636 489.676L611.522 490.008C598.365 493.921 583.562 497.399 567.652 500.395L566.236 500.662L566.445 502.087C574.83 559.268 581.678 617.025 583.853 655.449L527.179 656.733L526.345 653.792L523.549 643.939C521.356 636.211 518.725 626.939 516.973 620.758L516.973 620.757C516.192 618.011 515.309 615.226 514.418 612.438L514.244 611.892C513.408 609.278 512.572 606.66 511.802 604.035C510.153 598.415 508.831 592.842 508.502 587.398C505.026 529.897 498.002 472.734 489.466 415.811L487.982 416.034L489.466 415.811C481.022 359.52 471.156 303.43 460.039 247.612C520.194 224.879 587.326 207 651.836 215.194L652.025 213.708L651.836 215.194C680.838 218.878 713.252 228.87 730.658 253.393L731.881 252.524L730.658 253.393C737.221 262.638 740.602 273.184 741.038 284.506C741.931 307.932 739.329 332.963 736.819 357.106C736.205 363.011 735.597 368.863 735.046 374.625C732.496 401.373 727.379 420.468 707.901 439.507Z" fill="#D2912F" stroke="black" stroke-width="3"/>
<path d="M571.148 585.746L583.488 653.619M747.525 602.487L740.92 668.895M604.077 399.701L612.833 489.077" stroke="black" stroke-width="3"/>
<path d="M739.983 484.488C764.609 517.122 787.831 547.917 805.972 578.363L747.711 603.468C743.241 597.672 738.904 592.058 734.684 586.596C684.017 521.01 650.209 477.248 604.407 400.97L603.808 399.973L602.693 400.305C587.868 404.71 571.184 408.622 553.257 412.005L551.842 412.272L552.05 413.697C561.518 478.242 569.244 543.429 571.68 586.721L508.322 590.145C503.305 489.336 479.443 346.134 459.672 246.891C527.196 221.4 583.47 211.706 627.481 212.733C671.777 213.767 703.507 225.653 721.874 243.052C740.164 260.378 745.343 283.285 736.408 306.969C727.438 330.749 704.168 355.455 665.231 375.887L663.801 376.638L664.655 378.009C688.471 416.223 714.815 451.135 739.752 484.182L739.983 484.488ZM541.867 348.446L542.108 349.923L543.585 349.685C586.117 342.848 617.998 332.948 639.097 322.54C649.641 317.339 657.559 311.978 662.767 306.756C667.943 301.565 670.643 296.296 670.201 291.326C669.751 286.28 666.127 282.133 660.047 279.084C653.963 276.034 645.173 273.939 633.761 273.042C610.915 271.248 577.138 274.228 532.386 284.51L530.992 284.83L531.246 286.239C534.702 305.364 538.247 326.296 541.867 348.446Z" fill="#FFDA10" stroke="black" stroke-width="3"/>
<path d="M346.725 390.885L342.43 394.079L347.759 393.582C379.105 390.662 402.557 396.985 418.437 412.22C434.341 427.479 442.945 451.957 443.95 485.996C444.946 519.712 431.067 547.884 402.135 570.604C373.358 593.201 329.676 610.406 270.93 622.113C236.322 490.752 200.149 355.674 162.412 216.907C217.101 196.984 263.011 189.894 300.222 195.456C337.259 200.993 362.612 228.558 376.05 279.007C382.767 304.228 383.615 326.103 378.72 344.69C373.832 363.25 363.19 378.641 346.725 390.885ZM276.028 437.615L274.512 437.93L274.874 439.435L299.929 543.466L300.309 545.041L301.849 544.542C333.902 534.172 357.27 522.421 371.781 509.216C386.358 495.951 392.078 481.121 388.507 464.85C386.734 456.756 382.998 450.066 377.281 444.844C371.577 439.635 363.977 435.954 354.571 433.738C335.798 429.315 309.575 430.663 276.028 437.615ZM266.099 377.086L266.536 378.574L268.008 378.088C292.739 369.923 310.578 359.221 321.301 345.862C332.077 332.437 335.554 316.469 331.82 298.115L331.82 298.114C328.067 279.686 317.998 267.661 301.617 262.344C285.394 257.078 263.172 258.455 235.127 266.187L233.657 266.593L234.087 268.056L266.099 377.086Z" fill="#FFDA10" stroke="black" stroke-width="3"/>
<path d="M1039.63 348.256L1039.63 348.256C1030.15 417.284 999.684 461.19 948.529 480.494C922.821 490.195 900.159 492.28 880.486 486.921C860.832 481.566 843.973 468.73 829.95 448.227C801.844 407.132 791.422 355.321 798.85 292.653C806.268 230.081 832.521 188.984 877.39 168.885C899.907 158.799 921.237 155.707 941.444 159.501C961.655 163.296 980.882 174.005 999.145 191.754C1035.45 227.127 1049.13 279.23 1039.63 348.256ZM849.79 328.746L849.79 328.75C850.785 365.514 859.792 392.292 877.328 408.783C886.067 417.046 896.025 421.659 907.168 422.528C918.284 423.395 930.456 420.528 943.646 414.056C970.279 400.988 986.016 375.614 990.974 338.28C995.936 300.909 987.031 270.178 964.126 246.38C952.683 234.491 940.592 228.004 927.86 227.237C915.135 226.47 902.049 231.434 888.644 241.876C861.781 262.71 848.879 291.733 849.79 328.746Z" fill="#FFDA10" stroke="black" stroke-width="3"/>
<path d="M795.32 366.922C794.008 375.401 791.244 398.582 790.684 423.471M794.156 356.355C793.286 364.499 791.383 382.416 790.731 388.928M795.804 375.883C795.228 380.227 794.155 389.762 794.472 393.15M788.787 402.473C788.371 407.158 787.616 417.946 787.922 423.621M798.474 397.805C795.96 412.595 791.098 445.248 791.762 457.536M801.461 392.773C799.603 411.493 795.755 453.551 795.222 472.025M1002.4 448.051C998.538 456.163 988.695 476.992 980.187 495.412M993.418 459.635C988.486 471.253 976.704 497.366 969.037 508.879M988.364 463.155C986.396 467.974 981.653 479.147 978.42 485.294M977.479 500.275C975.078 503.952 969.757 512.287 967.677 516.212M975.93 471.61C975.309 475.773 972.893 485.942 968.195 493.312M981.686 466.216L976.255 477.628M965.623 478.203C961.002 493.806 950.146 527.515 943.684 537.521M963.12 499.622C961.234 504.965 956.947 516.728 954.888 521.032M951.757 483.717C949.519 490.403 944.463 504.823 942.143 509.015M803.685 401.668C801.466 424.106 797.002 472.168 796.903 484.911M790.884 427.175C790.157 430.806 788.779 439.48 789.084 445.125M855.137 297.247C854.604 305.829 853.367 324.792 852.68 331.99M989.113 324.617L977.937 368.827M988.731 317.539L967.147 380.825M988.287 309.334L976.549 343.151M987.429 293.452L977.253 326.654M864.88 275.121L857.478 340.56M870.063 267.673L867.315 290.652M879.863 257.055L869.404 329.297M893.942 305.937L890.527 331.341M919.491 232.349L911.293 272.612M920.263 246.642L912.137 288.229M932.307 233.249L925.637 267.324M955.888 246.31L937.113 322.187M957.973 250.445L950.644 282.166M957.318 272.78L949.638 302.927M978.015 271.661L968.813 298.44M978.97 277.673L975.69 286.996M983.87 284.353L978.779 300.59M975.214 368.974L971.864 379.034M972.531 355.357L958.594 389.683M861.07 204.618L869.945 198.403M906.224 178.827L920.547 173.136M998.325 219.323L1005.15 216.496M1013.34 292.052L1024.21 288.11M924.46 455.189L939.034 451.476M833.771 410.11L842.576 405.948M826.831 301.852L833.444 298.42M830.757 296.875L835.392 294.315M846.559 268.943L850.993 266.713" stroke="black" stroke-width="1.5" stroke-linecap="round" stroke-linejoin="round"/>
<path d="M600.616 404.372L607.537 474.55M597.653 404.532L602.963 447.794M603.24 452.93L606.558 485.373M593.822 405.988L600.21 451.845M555.519 414.926L565.461 486.033M558.482 414.766L563.611 451.794M563.522 415.43L569.371 462.877M567.868 411.917L568.432 422.345M590.754 407.09L598.662 466.601M587.672 410.847L587.967 416.294M610.161 416.031L617.857 483.201M614.821 427.018L615.384 437.445M618.66 431.493L620.347 485.876M621.572 437.111L621.998 444.981M624.542 440.215L625.409 456.27M628.355 446.422L629.136 473.383M734.628 319.322C733.864 336.881 731.808 374.08 729.688 382.398M731.357 324.145C731.471 330.228 731.369 343.981 730.043 350.333M730.224 353.688C729.576 365.473 727.988 390.149 726.814 394.571M728.842 328.126L728.95 337.586M729.119 340.718C728.735 345.95 727.932 356.872 727.803 358.707M725.448 332.35C725.58 342.718 725.614 364.536 724.704 368.868M669.67 378.66L681.491 398.354M535.389 288.356L544.357 343.634M538.303 286.942L541.354 308.454M541.471 290.227L548.51 336.027M544.308 325.259L544.613 330.897M544.215 285.68L552.082 332.221M547.765 284.389L551.792 306.476M660.109 283.815L662.75 294.825M665.898 289L666.203 294.639M653.438 279.778L659.759 300.641M657.077 283.037L659.243 291.088M553.729 284.067L556.611 296.634M567.751 281.424L573.977 318.001M637.427 277.658L643.672 302.925M649.163 282.208L654.75 304.054M649.84 294.737L653.359 307.428M496.851 404.186L539.295 360.642M518.677 389.801L549.69 357.863M724.165 271.415L686.163 308.254M648.161 345.093L675.59 318.144M662.121 344.339L657.218 349.714M540.213 455.087L535.181 461.146M536.882 492.62L531.826 498.242M688.41 461.75L685.382 470.343M767.451 535.879L762.238 546.859M741.627 604.783L737.955 642.043M738.702 599.976L736.827 621.179M733.618 591.384L730.052 624.028M738.423 650.707L737.22 658.042M750.403 606.082L747.387 645.612M800.058 584.602L791.971 625.647M796.275 586.934L794.153 596.979M791.635 589.845L783.528 643.659M710.024 561.179L706.524 581.988M714.598 568.78L710.856 590.833M725.279 580.975L724.165 588.883M513.412 592.313L527.863 644.229M516.874 595.163L525.757 627.306M566.965 591.532L575.095 631.771M567.968 610.1L575.991 648.364M705.283 503.744L703.035 508.101M639.195 384.655L636.617 388.573M659.456 233.867L657.556 236.569M572.748 231.753L565.455 238.947M474.203 248.629L469.023 255.798" stroke="black" stroke-width="1.5" stroke-linecap="round" stroke-linejoin="round"/>
<path d="M279.802 624.268L318.494 678.689M282.596 624.117L299.123 647.429M302.515 651.2L315.644 670.646M286.353 623.914L295.871 639.119M292.517 621.749L314.813 655.261M295.834 622.341L302.525 631.719M309.943 618.782L321.884 637.713M312.719 616.51L318.157 625.956M330.678 610.91L343.531 632.396M319.472 650.284L334.295 677.835M447.808 492.816C452.468 505.584 462.014 532.664 462.915 538.843M448.25 501L456.841 526.151M447.825 506.259L465.069 552.454M447.014 512.247L457.543 539.133M443.521 515.832L446.486 523.456M448.626 521.076L450.337 526.502M445.024 543.631L462.421 582.175M458.374 554.514L466.091 571.362M433.262 541.153L440.7 555.469M425.657 552.602L437.588 576.582M435.452 537.072L440.174 545.732M430.407 548.666L455.843 599.513M420.619 559.102L422.388 562.969M410.852 611.207L417.864 622.516M375.601 606.092L377.898 610.531M419.415 579.313L421.984 584.36M445.323 562.545L459.436 587.836M452.536 569.585L455.953 576.219M445.654 525.278L453.377 541.755M301.578 531.964L304.797 538.299M298.589 518.269L306.783 535.254M276.338 438.588L315.805 525.221M294.815 489.052L310.012 523.047M307.12 510.875L320.6 536.758M283.466 459.065L292.337 478.147M286.795 473.067L292.759 485.948M290.926 490.571L302.685 515.487M284.907 438.125L309.729 489.555M302.059 447.843L325.899 495.408M313.271 478.325L329.45 509.668M318.731 502.179L324.972 514.283M347.31 438.736L358.16 464.519M367.209 441.547L384.359 480.998M373.11 468.402L380.095 484.443M360.648 381.181L364.434 390.21M359.104 385.39L361.146 390.388M365.455 375.42L373.315 389.73M372.034 366.027L380.684 391.297M376.13 361.68L379.646 372.099M386.416 318.884C393.36 338.09 407.469 379.162 408.359 389.801M393.967 349.321C398.803 363.533 408.56 393.523 408.899 399.792M387.231 333.968L391.108 343.778M386.164 339.723L401.082 378.996M388.248 352.774L392.082 361.8M399.602 384.381L403.77 395.943" stroke="black" stroke-width="1.5" stroke-linecap="round" stroke-linejoin="round"/>
<path d="M320.499 523.463L275.127 437.326M233.988 265.39L276.072 374.351" stroke="black" stroke-width="3" stroke-linecap="round" stroke-linejoin="round"/>
<path d="M263.395 352.471L267.706 363.222M268.764 365.917L270.805 370.713M240.566 269.1L269.543 347.352M244.28 268.9L254.379 297.657M252.043 278.758L283.015 361.276M278.812 356.473L283.298 366.509M311.728 272.252L327.547 313.603M324.361 295.187L328.688 306.325M299.116 265.936L317.032 309.579M313.755 309.756L323.052 331.777M277.736 263.593L286.85 286.28M292.303 314.195L295.496 320.583" stroke="black" stroke-width="1.5" stroke-linecap="round" stroke-linejoin="round"/>
<path d="M183.881 232.494L189.072 227.399M189.195 229.687L193.801 224.605M197.808 259.952L202.421 255.068M270.345 223.007L277.898 216.693L278.079 220.05L284.149 216.355M331.472 237.936L338.34 232.067M345.41 256.543L341.583 261.052M236.764 324.56L231.82 330.564M319.581 372.43L313.933 378.711M317.754 378.504L303.657 392.413M427.145 493.212L418.817 503.697M306.091 564.595L298.472 573.884M266.193 520.436L250.818 543.653" stroke="black" stroke-width="1.5" stroke-linecap="round" stroke-linejoin="round"/>
<path d="M731.334 219.049C740.292 212.328 749.029 205.489 757.313 197.946C768.547 187.716 778.718 176.375 789.291 165.478C789.444 165.321 808.508 146.251 800.133 145.702C796.691 145.476 794.49 148.901 792.59 151.28C784.778 161.057 778.021 171.67 772.448 182.864C765.955 195.903 760.615 209.514 754.606 222.779" stroke="black" stroke-width="3" stroke-linecap="round"/>
<path d="M731.312 173.064C744.354 176.693 757.604 179.703 770.721 183.046C784.612 186.585 798.528 189.962 812.511 193.118" stroke="black" stroke-width="3" stroke-linecap="round"/>
</svg>
