<svg width="111" height="29" viewBox="0 0 111 29" fill="none" xmlns="http://www.w3.org/2000/svg">
<path d="M10.6135 8.77881L18.2377 21.5393H2.98917L10.6135 8.77881Z" fill="white"/>
<path d="M23.2748 15.3059L17.0212 4.99363L29.5284 4.99363L23.2748 15.3059Z" fill="white"/>
<path d="M98.6332 14.0291C98.6332 12.8489 98.8991 11.8101 99.431 10.9125C99.9796 10.0149 100.719 9.31675 101.65 8.81809C102.581 8.30281 103.636 8.04517 104.817 8.04517C105.997 8.04517 107.044 8.30281 107.958 8.81809C108.889 9.31675 109.629 10.0149 110.177 10.9125C110.726 11.8101 111 12.8489 111 14.0291C111 15.1926 110.726 16.2315 110.177 17.1457C109.629 18.0433 108.889 18.7498 107.958 19.265C107.044 19.7637 105.997 20.013 104.817 20.013C103.636 20.013 102.581 19.7637 101.65 19.265C100.719 18.7498 99.9796 18.0433 99.431 17.1457C98.8991 16.2315 98.6332 15.1926 98.6332 14.0291ZM101.401 14.0291C101.401 14.7438 101.55 15.3755 101.85 15.924C102.149 16.4559 102.556 16.8798 103.071 17.1956C103.587 17.4948 104.168 17.6444 104.817 17.6444C105.448 17.6444 106.022 17.4948 106.537 17.1956C107.069 16.8798 107.484 16.4559 107.784 15.924C108.083 15.3755 108.232 14.7438 108.232 14.0291C108.232 13.3144 108.083 12.6827 107.784 12.1342C107.484 11.5857 107.069 11.1618 106.537 10.8626C106.022 10.5634 105.448 10.4138 104.817 10.4138C104.168 10.4138 103.587 10.5634 103.071 10.8626C102.556 11.1618 102.149 11.5857 101.85 12.1342C101.55 12.6827 101.401 13.3144 101.401 14.0291Z" fill="white"/>
<path d="M86.2903 8.29541H89.2324L92.2244 15.7005L95.2163 8.29541H98.1834L92.2244 20.8118L86.2903 8.29541Z" fill="white"/>
<path d="M73.4799 14.0291C73.4799 12.8489 73.7458 11.8101 74.2777 10.9125C74.8262 10.0149 75.5659 9.31675 76.4968 8.81809C77.4276 8.30281 78.4831 8.04517 79.6633 8.04517C80.8434 8.04517 81.8906 8.30281 82.8048 8.81809C83.7357 9.31675 84.4753 10.0149 85.0239 10.9125C85.5724 11.8101 85.8467 12.8489 85.8467 14.0291C85.8467 15.1926 85.5724 16.2315 85.0239 17.1457C84.4753 18.0433 83.7357 18.7498 82.8048 19.265C81.8906 19.7637 80.8434 20.013 79.6633 20.013C78.4831 20.013 77.4276 19.7637 76.4968 19.265C75.5659 18.7498 74.8262 18.0433 74.2777 17.1457C73.7458 16.2315 73.4799 15.1926 73.4799 14.0291ZM76.2474 14.0291C76.2474 14.7438 76.397 15.3755 76.6962 15.924C76.9954 16.4559 77.4027 16.8798 77.9179 17.1956C78.4332 17.4948 79.015 17.6444 79.6633 17.6444C80.2949 17.6444 80.8684 17.4948 81.3836 17.1956C81.9155 16.8798 82.3311 16.4559 82.6303 15.924C82.9295 15.3755 83.0791 14.7438 83.0791 14.0291C83.0791 13.3144 82.9295 12.6827 82.6303 12.1342C82.3311 11.5857 81.9155 11.1618 81.3836 10.8626C80.8684 10.5634 80.2949 10.4138 79.6633 10.4138C79.015 10.4138 78.4332 10.5634 77.9179 10.8626C77.4027 11.1618 76.9954 11.5857 76.6962 12.1342C76.397 12.6827 76.2474 13.3144 76.2474 14.0291Z" fill="white"/>
<path d="M68.1462 12.7824C68.1462 11.9347 67.9716 11.2948 67.6226 10.8626C67.2735 10.4304 66.7333 10.2143 66.0019 10.2143C65.5033 10.2143 65.0628 10.3224 64.6805 10.5385C64.2982 10.7379 63.999 11.0371 63.7829 11.4361C63.5668 11.8184 63.4588 12.2672 63.4588 12.7824V19.7637H60.766V8.2945H63.4588V10.0647C63.8244 9.38324 64.2899 8.87627 64.855 8.54383C65.4368 8.21139 66.1266 8.04517 66.9245 8.04517C68.221 8.04517 69.21 8.4441 69.8915 9.24195C70.573 10.0232 70.9138 11.1036 70.9138 12.4833V19.7637H68.1462V12.7824Z" fill="white"/>
<path d="M50.713 15.9988C51.0787 16.3977 51.4444 16.7468 51.8101 17.046C52.1924 17.3286 52.5747 17.5447 52.957 17.6943C53.3393 17.8272 53.7216 17.8937 54.1039 17.8937C54.5859 17.8937 54.9599 17.7857 55.2259 17.5696C55.5085 17.3535 55.6497 17.0543 55.6497 16.672C55.6497 16.3396 55.5417 16.057 55.3256 15.8243C55.1095 15.575 54.8103 15.3672 54.428 15.201C54.0457 15.0181 53.5969 14.8353 53.0816 14.6524C52.5664 14.453 52.0511 14.2203 51.5358 13.9543C51.0371 13.6717 50.6216 13.306 50.2891 12.8572C49.9733 12.4085 49.8154 11.8433 49.8154 11.1618C49.8154 10.4637 49.9899 9.8819 50.339 9.41648C50.7047 8.95107 51.1867 8.61032 51.7851 8.39423C52.4001 8.16152 53.0567 8.04517 53.7548 8.04517C54.3865 8.04517 54.9765 8.13659 55.5251 8.31943C56.0902 8.50227 56.5972 8.74329 57.046 9.04249C57.4948 9.34169 57.8771 9.68244 58.1929 10.0647L56.6969 11.6605C56.3146 11.2117 55.8575 10.846 55.3256 10.5634C54.7937 10.2808 54.2452 10.1395 53.68 10.1395C53.2977 10.1395 52.9819 10.2227 52.7326 10.3889C52.4832 10.5551 52.3586 10.7961 52.3586 11.1119C52.3586 11.3779 52.4666 11.6189 52.6827 11.835C52.9154 12.0345 53.2146 12.2173 53.5803 12.3835C53.9626 12.5497 54.3865 12.7243 54.8519 12.9071C55.4835 13.1564 56.0653 13.4307 56.5972 13.7299C57.1291 14.0291 57.553 14.3948 57.8688 14.827C58.2012 15.2591 58.3674 15.8243 58.3674 16.5224C58.3674 17.6028 57.9934 18.4755 57.2455 19.1404C56.5141 19.7886 55.5168 20.1128 54.2535 20.1128C53.4723 20.1128 52.7492 19.9964 52.0843 19.7637C51.4361 19.5144 50.8626 19.1986 50.3639 18.8162C49.8819 18.4173 49.4747 18.0018 49.1422 17.5696L50.713 15.9988Z" fill="white"/>
<path d="M35.2723 14.0291C35.2723 12.8489 35.5383 11.8101 36.0702 10.9125C36.6187 10.0149 37.3584 9.31675 38.2892 8.81809C39.2201 8.30281 40.2756 8.04517 41.4557 8.04517C42.6359 8.04517 43.6831 8.30281 44.5973 8.81809C45.5281 9.31675 46.2678 10.0149 46.8163 10.9125C47.3649 11.8101 47.6391 12.8489 47.6391 14.0291C47.6391 15.1926 47.3649 16.2315 46.8163 17.1457C46.2678 18.0433 45.5281 18.7498 44.5973 19.265C43.6831 19.7637 42.6359 20.013 41.4557 20.013C40.2756 20.013 39.2201 19.7637 38.2892 19.265C37.3584 18.7498 36.6187 18.0433 36.0702 17.1457C35.5383 16.2315 35.2723 15.1926 35.2723 14.0291ZM38.0399 14.0291C38.0399 14.7438 38.1895 15.3755 38.4887 15.924C38.7879 16.4559 39.1951 16.8798 39.7104 17.1956C40.2257 17.4948 40.8075 17.6444 41.4557 17.6444C42.0874 17.6444 42.6608 17.4948 43.1761 17.1956C43.708 16.8798 44.1236 16.4559 44.4228 15.924C44.722 15.3755 44.8716 14.7438 44.8716 14.0291C44.8716 13.3144 44.722 12.6827 44.4228 12.1342C44.1236 11.5857 43.708 11.1618 43.1761 10.8626C42.6608 10.5634 42.0874 10.4138 41.4557 10.4138C40.8075 10.4138 40.2257 10.5634 39.7104 10.8626C39.1951 11.1618 38.7879 11.5857 38.4887 12.1342C38.1895 12.6827 38.0399 13.3144 38.0399 14.0291Z" fill="white"/>
</svg>
