<svg width="1920" height="961" viewBox="0 0 1920 961" fill="none" xmlns="http://www.w3.org/2000/svg">
<g clip-path="url(#clip0_116_648)">
<rect width="1920" height="961" fill="#FFDA10"/>
<g opacity="0.7">
<mask id="path-1-inside-1_116_648" fill="white">
<path d="M727.8 2119.44L606.038 498.449L610.161 552.537C616.537 552.062 626.565 550.468 638.153 545.711L603.63 461.69L603.242 461.208L603.351 461.024L603.296 460.992L603.331 460.99L603.327 460.937L603.203 460.929L603.269 460.871L603.182 460.649L603.264 460.326L603.156 460.298L603.276 460.254L603.303 460.146L603.345 460.231L603.635 460.104L603.302 460.129L603.329 460.021L603.652 460.103L603.875 460.016L603.933 460.082L604.029 459.951L604.213 460.061L604.661 459.693L611.191 457.021L695.326 450.48L695.534 453.266L604.214 460.079L604.676 460.361L606.201 460.741L605.36 460.803L605.434 460.851L606.345 460.783L692.98 481.834C695.812 470.208 695.964 460.438 695.559 454.074L621.599 459.592L695.542 453.846C695.529 453.671 695.517 453.513 695.504 453.338L695.542 453.846L2262.11 331.969L2262.44 336.366C2275.47 511.053 2261.12 685.528 2219.76 854.936L605.508 460.898L2018.15 1335.72C1926.35 1483.95 1812.42 1616.3 1679.51 1729.13L604.216 462.456L1234.09 2000.06C1072.75 2066.16 902.374 2106.31 727.729 2119.43L727.8 2119.44ZM606.307 462.864L663.654 530.28C670.694 524.294 676.739 517.255 681.595 509.388L606.307 462.864ZM604.59 460.861L604.629 460.911L605.364 460.856L605.203 460.815L604.59 460.861ZM603.408 460.368L603.535 460.658L603.73 460.432L603.424 460.349L603.408 460.368ZM604.029 460.198L604.064 460.195L604.232 460.077L603.934 460.099L604.029 460.198ZM603.689 460.118L603.904 460.172L603.952 460.098L603.689 460.118ZM209.234 2077.05C39.2235 2035.65 -122.59 1967.89 -271.695 1875.67L554.968 539.251C562.97 544.045 571.746 547.635 581.097 549.95L209.216 2077.05L209.234 2077.05ZM-665.279 1537.23C-778.805 1403.65 -870.025 1253.83 -936.445 1091.96L517.664 495.407C521.341 504.31 526.228 512.454 532.156 519.657L-665.281 1537.21L-665.279 1537.23ZM-1055.99 586.74L-1056.2 583.954C-1069.19 409.863 -1054.97 235.961 -1013.95 67.0714L595.849 458.219L598.442 458.025L-812.786 -413.964C-721.153 -562.269 -607.343 -694.753 -474.568 -807.725L601.943 457.729L601.995 457.725L-29.4383 -1079.11C131.852 -1145.38 302.194 -1185.73 476.826 -1199.02L596.093 367.746C589.734 368.221 579.776 369.809 568.256 374.527L602.328 457.7L602.941 457.655L603.081 459.053L603.05 459.108L603.15 459.982L603.125 459.649L603.254 459.956L603.184 459.962L603.275 460.008L603.321 460.145L603.163 460.157L603.151 459.999L603.116 460.002L603.128 460.16L510.74 467.052L510.8 467.858L-180.257 519.414L-1056.15 584.69L-1055.99 586.74ZM513.304 438.377C510.661 449.232 510.328 458.469 510.61 464.842L594.886 458.291L513.304 438.377ZM542.739 389.976C535.682 395.964 529.635 402.985 524.761 410.853L600.038 457.466L542.739 389.976ZM603.392 459.911L603.473 459.588L603.699 459.782L603.409 459.91L603.392 459.911ZM603.12 459.579L603.104 459.369L603.16 459.4L603.12 459.579ZM603.103 459.351L603.082 459.071L603.199 459.221L603.103 459.351ZM605.424 459.055L607.495 457.297L610.227 457.093L605.424 459.055ZM603.08 459.036L602.975 457.634L603.606 457.587L603.363 458.592L603.08 459.036ZM688.603 424.823C684.909 415.921 680.021 407.778 674.076 400.576L1870.47 -618.253C1984.12 -484.789 2075.5 -335.077 2142.09 -173.282L688.602 424.806L688.603 424.823ZM651.248 381C643.246 376.207 634.454 372.635 625.103 370.321L995.406 -1157.15C1165.47 -1115.92 1327.34 -1048.34 1476.53 -956.264L651.248 381Z"/>
</mask>
<path d="M727.8 2119.44L606.038 498.449L610.161 552.537C616.537 552.062 626.565 550.468 638.153 545.711L603.63 461.69L603.242 461.208L603.351 461.024L603.296 460.992L603.331 460.99L603.327 460.937L603.203 460.929L603.269 460.871L603.182 460.649L603.264 460.326L603.156 460.298L603.276 460.254L603.303 460.146L603.345 460.231L603.635 460.104L603.302 460.129L603.329 460.021L603.652 460.103L603.875 460.016L603.933 460.082L604.029 459.951L604.213 460.061L604.661 459.693L611.191 457.021L695.326 450.48L695.534 453.266L604.214 460.079L604.676 460.361L606.201 460.741L605.36 460.803L605.434 460.851L606.345 460.783L692.98 481.834C695.812 470.208 695.964 460.438 695.559 454.074L621.599 459.592L695.542 453.846C695.529 453.671 695.517 453.513 695.504 453.338L695.542 453.846L2262.11 331.969L2262.44 336.366C2275.47 511.053 2261.12 685.528 2219.76 854.936L605.508 460.898L2018.15 1335.72C1926.35 1483.95 1812.42 1616.3 1679.51 1729.13L604.216 462.456L1234.09 2000.06C1072.75 2066.16 902.374 2106.31 727.729 2119.43L727.8 2119.44ZM606.307 462.864L663.654 530.28C670.694 524.294 676.739 517.255 681.595 509.388L606.307 462.864ZM604.59 460.861L604.629 460.911L605.364 460.856L605.203 460.815L604.59 460.861ZM603.408 460.368L603.535 460.658L603.73 460.432L603.424 460.349L603.408 460.368ZM604.029 460.198L604.064 460.195L604.232 460.077L603.934 460.099L604.029 460.198ZM603.689 460.118L603.904 460.172L603.952 460.098L603.689 460.118ZM209.234 2077.05C39.2235 2035.65 -122.59 1967.89 -271.695 1875.67L554.968 539.251C562.97 544.045 571.746 547.635 581.097 549.95L209.216 2077.05L209.234 2077.05ZM-665.279 1537.23C-778.805 1403.65 -870.025 1253.83 -936.445 1091.96L517.664 495.407C521.341 504.31 526.228 512.454 532.156 519.657L-665.281 1537.21L-665.279 1537.23ZM-1055.99 586.74L-1056.2 583.954C-1069.19 409.863 -1054.97 235.961 -1013.95 67.0714L595.849 458.219L598.442 458.025L-812.786 -413.964C-721.153 -562.269 -607.343 -694.753 -474.568 -807.725L601.943 457.729L601.995 457.725L-29.4383 -1079.11C131.852 -1145.38 302.194 -1185.73 476.826 -1199.02L596.093 367.746C589.734 368.221 579.776 369.809 568.256 374.527L602.328 457.7L602.941 457.655L603.081 459.053L603.05 459.108L603.15 459.982L603.125 459.649L603.254 459.956L603.184 459.962L603.275 460.008L603.321 460.145L603.163 460.157L603.151 459.999L603.116 460.002L603.128 460.16L510.74 467.052L510.8 467.858L-180.257 519.414L-1056.15 584.69L-1055.99 586.74ZM513.304 438.377C510.661 449.232 510.328 458.469 510.61 464.842L594.886 458.291L513.304 438.377ZM542.739 389.976C535.682 395.964 529.635 402.985 524.761 410.853L600.038 457.466L542.739 389.976ZM603.392 459.911L603.473 459.588L603.699 459.782L603.409 459.91L603.392 459.911ZM603.12 459.579L603.104 459.369L603.16 459.4L603.12 459.579ZM603.103 459.351L603.082 459.071L603.199 459.221L603.103 459.351ZM605.424 459.055L607.495 457.297L610.227 457.093L605.424 459.055ZM603.08 459.036L602.975 457.634L603.606 457.587L603.363 458.592L603.08 459.036ZM688.603 424.823C684.909 415.921 680.021 407.778 674.076 400.576L1870.47 -618.253C1984.12 -484.789 2075.5 -335.077 2142.09 -173.282L688.602 424.806L688.603 424.823ZM651.248 381C643.246 376.207 634.454 372.635 625.103 370.321L995.406 -1157.15C1165.47 -1115.92 1327.34 -1048.34 1476.53 -956.264L651.248 381Z" fill="white"/>
<path d="M604.582 458.038L604.644 457.927L603.338 457.19L603.276 457.3L604.582 458.038ZM727.8 2119.44L727.545 2120.92L729.44 2121.25L729.296 2119.33L727.8 2119.44ZM606.038 498.449L607.533 498.335L604.542 498.562L606.038 498.449ZM610.161 552.537L608.665 552.651L608.779 554.145L610.273 554.033L610.161 552.537ZM638.153 545.711L638.723 547.098L640.111 546.528L639.541 545.14L638.153 545.711ZM603.63 461.69L605.017 461.12L604.935 460.918L604.798 460.749L603.63 461.69ZM603.242 461.208L601.952 460.441L601.42 461.337L602.074 462.149L603.242 461.208ZM603.351 461.024L604.64 461.79L605.426 460.47L604.087 459.716L603.351 461.024ZM603.296 460.992L603.184 459.497L598.234 459.866L602.56 462.3L603.296 460.992ZM603.331 460.99L603.443 462.486L604.938 462.374L604.827 460.878L603.331 460.99ZM603.327 460.937L604.823 460.826L604.726 459.529L603.428 459.441L603.327 460.937ZM603.203 460.929L602.216 459.799L599.49 462.181L603.102 462.426L603.203 460.929ZM603.269 460.871L604.256 462.001L605.051 461.307L604.666 460.324L603.269 460.871ZM603.182 460.649L601.728 460.282L601.61 460.748L601.786 461.196L603.182 460.649ZM603.264 460.326L604.718 460.692L605.085 459.239L603.631 458.871L603.264 460.326ZM603.156 460.298L602.638 458.891L598.093 460.565L602.788 461.753L603.156 460.298ZM603.276 460.254L603.795 461.662L604.536 461.389L604.73 460.623L603.276 460.254ZM603.303 460.146L604.651 459.488L602.856 455.812L601.85 459.777L603.303 460.146ZM603.345 460.231L601.997 460.89L602.629 462.184L603.948 461.605L603.345 460.231ZM603.635 460.104L604.238 461.478L603.523 458.608L603.635 460.104ZM603.302 460.129L601.848 459.763L601.34 461.779L603.414 461.625L603.302 460.129ZM603.329 460.021L603.696 458.567L602.241 458.2L601.875 459.655L603.329 460.021ZM603.652 460.103L603.286 461.557L603.751 461.675L604.199 461.5L603.652 460.103ZM603.875 460.016L605.004 459.028L604.31 458.235L603.329 458.619L603.875 460.016ZM603.933 460.082L602.804 461.07L604.034 462.476L605.141 460.971L603.933 460.082ZM604.029 459.951L604.795 458.662L603.626 457.967L602.82 459.063L604.029 459.951ZM604.213 460.061L603.447 461.351L604.352 461.888L605.165 461.22L604.213 460.061ZM604.661 459.693L604.093 458.305L603.884 458.39L603.709 458.534L604.661 459.693ZM611.191 457.021L611.075 455.526L610.84 455.544L610.623 455.633L611.191 457.021ZM695.326 450.48L696.822 450.369L696.71 448.868L695.21 448.985L695.326 450.48ZM695.534 453.266L695.646 454.761L697.142 454.65L697.03 453.154L695.534 453.266ZM604.214 460.079L604.103 458.583L599.464 458.929L603.431 461.358L604.214 460.079ZM604.676 460.361L603.892 461.64L604.089 461.761L604.314 461.817L604.676 460.361ZM606.201 460.741L606.313 462.236L606.563 459.285L606.201 460.741ZM605.36 460.803L605.249 459.307L600.753 459.643L604.554 462.068L605.36 460.803ZM605.434 460.851L604.628 462.115L605.048 462.384L605.546 462.346L605.434 460.851ZM606.345 460.783L606.7 459.325L606.47 459.269L606.234 459.287L606.345 460.783ZM692.98 481.834L692.626 483.292L694.082 483.646L694.437 482.189L692.98 481.834ZM695.559 454.074L697.056 453.979L696.96 452.465L695.448 452.578L695.559 454.074ZM621.599 459.592L621.483 458.096L621.711 461.088L621.599 459.592ZM695.542 453.846L695.658 455.342L695.659 455.342L695.542 453.846ZM2262.11 331.969L2263.61 331.858L2263.5 330.357L2262 330.474L2262.11 331.969ZM2219.76 854.936L2219.41 856.393L2220.87 856.749L2221.22 855.292L2219.76 854.936ZM605.508 460.898L605.864 459.441L604.719 462.173L605.508 460.898ZM2018.15 1335.72L2019.42 1336.51L2020.21 1335.24L2018.94 1334.45L2018.15 1335.72ZM1679.51 1729.13L1678.37 1730.1L1679.34 1731.24L1680.48 1730.27L1679.51 1729.13ZM604.216 462.456L605.359 461.486L602.827 463.025L604.216 462.456ZM1234.09 2000.06L1234.65 2001.45L1236.04 2000.88L1235.47 1999.49L1234.09 2000.06ZM727.729 2119.43L727.616 2117.93L727.474 2120.91L727.729 2119.43ZM606.307 462.864L607.095 461.588L605.164 463.836L606.307 462.864ZM663.654 530.28L662.511 531.252L663.483 532.394L664.625 531.422L663.654 530.28ZM681.595 509.388L682.872 510.176L683.659 508.9L682.384 508.112L681.595 509.388ZM604.59 460.861L604.478 459.365L601.685 459.573L603.407 461.783L604.59 460.861ZM604.629 460.911L603.445 461.833L603.939 462.466L604.74 462.407L604.629 460.911ZM605.364 460.856L605.476 462.352L605.731 459.401L605.364 460.856ZM605.203 460.815L605.569 459.361L605.334 459.301L605.091 459.319L605.203 460.815ZM603.408 460.368L602.271 459.389L601.655 460.105L602.034 460.971L603.408 460.368ZM603.535 460.658L602.162 461.26L603.119 463.44L604.672 461.636L603.535 460.658ZM603.73 460.432L604.866 461.411L606.42 459.607L604.122 458.984L603.73 460.432ZM603.424 460.349L603.817 458.901L602.904 458.654L602.288 459.37L603.424 460.349ZM604.029 460.198L602.952 461.241L603.44 461.746L604.141 461.694L604.029 460.198ZM604.064 460.195L604.176 461.691L604.59 461.66L604.929 461.421L604.064 460.195ZM604.232 460.077L605.097 461.303L609.523 458.178L604.12 458.581L604.232 460.077ZM603.934 460.099L603.822 458.604L600.629 458.842L602.856 461.143L603.934 460.099ZM603.689 460.118L603.577 458.622L603.322 461.572L603.689 460.118ZM603.904 460.172L603.538 461.627L604.585 461.89L605.167 460.981L603.904 460.172ZM603.952 460.098L605.214 460.907L606.835 458.379L603.84 458.602L603.952 460.098ZM209.234 2077.05L209.345 2078.54L209.588 2075.59L209.234 2077.05ZM-271.695 1875.67L-272.971 1874.88L-273.76 1876.15L-272.484 1876.94L-271.695 1875.67ZM554.968 539.251L555.739 537.964L554.47 537.205L553.692 538.462L554.968 539.251ZM581.097 549.95L582.554 550.305L582.908 548.853L581.457 548.494L581.097 549.95ZM209.216 2077.05L207.759 2076.69L207.271 2078.7L209.328 2078.54L209.216 2077.05ZM-665.279 1537.23L-666.422 1538.2L-663.441 1541.7L-663.783 1537.11L-665.279 1537.23ZM-936.445 1091.96L-937.014 1090.57L-938.402 1091.14L-937.833 1092.53L-936.445 1091.96ZM517.664 495.407L519.05 494.834L518.479 493.451L517.095 494.019L517.664 495.407ZM532.156 519.657L533.127 520.8L534.253 519.843L533.314 518.703L532.156 519.657ZM-665.281 1537.21L-666.252 1536.06L-666.833 1536.56L-666.776 1537.32L-665.281 1537.21ZM-1013.95 67.0714L-1013.59 65.6137L-1015.05 65.2595L-1015.4 66.7173L-1013.95 67.0714ZM595.849 458.219L595.495 459.677L595.725 459.732L595.961 459.715L595.849 458.219ZM598.442 458.025L598.553 459.521L603.16 459.178L599.23 456.749L598.442 458.025ZM-812.786 -413.964L-814.062 -414.753L-814.85 -413.477L-813.574 -412.688L-812.786 -413.964ZM-474.568 -807.725L-473.426 -808.697L-474.398 -809.84L-475.54 -808.868L-474.568 -807.725ZM601.943 457.729L600.8 458.701L601.294 459.282L602.054 459.225L601.943 457.729ZM601.995 457.725L602.107 459.221L604.168 459.067L603.383 457.155L601.995 457.725ZM-29.4383 -1079.11L-30.0083 -1080.5L-31.3958 -1079.93L-30.8258 -1078.54L-29.4383 -1079.11ZM476.826 -1199.02L478.321 -1199.13L478.208 -1200.63L476.712 -1200.52L476.826 -1199.02ZM596.093 367.746L596.204 369.242L597.703 369.13L597.588 367.633L596.093 367.746ZM568.256 374.527L567.687 373.138L566.299 373.707L566.868 375.095L568.256 374.527ZM602.328 457.7L600.94 458.269L601.353 459.277L602.44 459.196L602.328 457.7ZM602.941 457.655L604.434 457.506L604.289 456.05L602.83 456.159L602.941 457.655ZM603.081 459.053L604.387 459.79L604.621 459.377L604.573 458.904L603.081 459.053ZM603.05 459.108L601.743 458.372L601.504 458.796L601.56 459.28L603.05 459.108ZM603.15 459.982L601.66 460.153L604.646 459.87L603.15 459.982ZM603.125 459.649L604.509 459.07L601.629 459.761L603.125 459.649ZM603.254 459.956L603.365 461.452L605.441 461.297L604.638 459.378L603.254 459.956ZM603.184 459.962L603.072 458.466L597.672 458.869L602.51 461.302L603.184 459.962ZM603.275 460.008L604.7 459.536L604.504 458.947L603.949 458.668L603.275 460.008ZM603.321 460.145L603.433 461.641L605.349 461.498L604.745 459.674L603.321 460.145ZM603.163 460.157L601.667 460.269L601.779 461.764L603.275 461.653L603.163 460.157ZM603.151 459.999L604.647 459.888L604.536 458.392L603.04 458.503L603.151 459.999ZM603.116 460.002L603.005 458.506L601.509 458.618L601.621 460.113L603.116 460.002ZM603.128 460.16L603.24 461.655L604.736 461.544L604.624 460.048L603.128 460.16ZM510.74 467.052L510.628 465.556L509.132 465.668L509.244 467.164L510.74 467.052ZM510.8 467.858L510.911 469.354L512.407 469.242L512.296 467.746L510.8 467.858ZM-180.257 519.414L-180.145 520.91L-180.145 520.91L-180.257 519.414ZM-1056.15 584.69L-1056.26 583.194L-1057.76 583.306L-1057.64 584.802L-1056.15 584.69ZM513.304 438.377L513.659 436.92L512.201 436.564L511.846 438.022L513.304 438.377ZM510.61 464.842L509.112 464.909L509.18 466.458L510.726 466.338L510.61 464.842ZM594.886 458.291L595.002 459.786L595.242 456.834L594.886 458.291ZM542.739 389.976L543.882 389.006L542.912 387.863L541.769 388.832L542.739 389.976ZM524.761 410.853L523.486 410.063L522.696 411.338L523.972 412.128L524.761 410.853ZM600.038 457.466L599.249 458.741L601.182 456.495L600.038 457.466ZM603.392 459.911L601.937 459.544L601.428 461.562L603.503 461.407L603.392 459.911ZM603.473 459.588L604.452 458.451L602.612 456.867L602.019 459.221L603.473 459.588ZM603.699 459.782L604.302 461.156L606.482 460.199L604.678 458.646L603.699 459.782ZM603.409 459.91L603.521 461.405L603.777 461.386L604.012 461.283L603.409 459.91ZM603.12 459.579L601.624 459.69L604.585 459.902L603.12 459.579ZM603.104 459.369L603.841 458.062L601.4 456.685L601.609 459.48L603.104 459.369ZM603.16 459.4L604.624 459.723L604.864 458.639L603.896 458.093L603.16 459.4ZM603.103 459.351L601.607 459.463L601.909 463.507L604.311 460.24L603.103 459.351ZM603.082 459.071L604.265 458.148L601.218 454.24L601.586 459.182L603.082 459.071ZM603.199 459.221L604.407 460.109L605.08 459.194L604.382 458.298L603.199 459.221ZM605.424 459.055L604.453 457.911L605.991 460.443L605.424 459.055ZM607.495 457.297L607.383 455.801L606.896 455.838L606.524 456.154L607.495 457.297ZM610.227 457.093L610.794 458.482L610.116 455.597L610.227 457.093ZM603.08 459.036L601.584 459.147L601.919 463.636L604.343 459.844L603.08 459.036ZM602.975 457.634L602.863 456.139L601.368 456.25L601.479 457.746L602.975 457.634ZM603.606 457.587L605.064 457.939L605.546 455.938L603.494 456.092L603.606 457.587ZM603.363 458.592L604.627 459.4L604.763 459.188L604.822 458.943L603.363 458.592ZM688.603 424.823L687.218 425.398L690.099 424.712L688.603 424.823ZM674.076 400.576L673.104 399.434L671.979 400.392L672.919 401.531L674.076 400.576ZM1870.47 -618.253L1871.61 -619.226L1870.64 -620.368L1869.49 -619.395L1870.47 -618.253ZM2142.09 -173.282L2142.66 -171.895L2144.04 -172.466L2143.47 -173.853L2142.09 -173.282ZM688.602 424.806L688.031 423.419L687.025 423.833L687.106 424.917L688.602 424.806ZM651.248 381L650.478 382.287L651.747 383.048L652.525 381.788L651.248 381ZM625.103 370.321L623.645 369.967L623.294 371.418L624.743 371.777L625.103 370.321ZM995.406 -1157.15L995.759 -1158.61L994.302 -1158.97L993.948 -1157.51L995.406 -1157.15ZM1476.53 -956.264L1477.8 -955.477L1478.59 -956.753L1477.31 -957.541L1476.53 -956.264ZM729.296 2119.33L607.533 498.337L604.542 498.562L726.304 2119.55L729.296 2119.33ZM604.542 498.563L608.665 552.651L611.657 552.423L607.533 498.335L604.542 498.563ZM610.273 554.033C616.777 553.548 626.963 551.926 638.723 547.098L637.583 544.323C626.166 549.01 616.298 550.575 610.049 551.042L610.273 554.033ZM639.541 545.14L605.017 461.12L602.242 462.26L636.766 546.281L639.541 545.14ZM604.798 460.749L604.41 460.267L602.074 462.149L602.462 462.631L604.798 460.749ZM604.531 461.975L604.64 461.79L602.062 460.257L601.952 460.441L604.531 461.975ZM604.087 459.716L604.031 459.685L602.56 462.3L602.616 462.331L604.087 459.716ZM603.408 462.488L603.443 462.486L603.219 459.494L603.184 459.497L603.408 462.488ZM604.827 460.878L604.823 460.826L601.831 461.049L601.835 461.101L604.827 460.878ZM603.428 459.441L603.304 459.432L603.102 462.426L603.226 462.434L603.428 459.441ZM604.19 462.059L604.256 462.001L602.283 459.742L602.216 459.799L604.19 462.059ZM604.666 460.324L604.579 460.102L601.786 461.196L601.873 461.418L604.666 460.324ZM604.637 461.016L604.718 460.692L601.809 459.959L601.728 460.282L604.637 461.016ZM603.631 458.871L603.524 458.844L602.788 461.753L602.896 461.78L603.631 458.871ZM603.675 461.706L603.795 461.662L602.757 458.847L602.638 458.891L603.675 461.706ZM604.73 460.623L604.757 460.516L601.85 459.777L601.822 459.885L604.73 460.623ZM601.956 460.805L601.997 460.89L604.693 459.573L604.651 459.488L601.956 460.805ZM603.948 461.605L604.238 461.478L603.032 458.731L602.742 458.858L603.948 461.605ZM603.523 458.608L603.191 458.633L603.414 461.625L603.747 461.6L603.523 458.608ZM604.757 460.495L604.784 460.387L601.875 459.655L601.848 459.763L604.757 460.495ZM602.962 461.476L603.286 461.557L604.019 458.648L603.696 458.567L602.962 461.476ZM604.199 461.5L604.421 461.413L603.329 458.619L603.106 458.706L604.199 461.5ZM602.746 461.004L602.804 461.07L605.062 459.094L605.004 459.028L602.746 461.004ZM605.141 460.971L605.237 460.84L602.82 459.063L602.724 459.193L605.141 460.971ZM603.262 461.241L603.447 461.351L604.979 458.771L604.795 458.662L603.262 461.241ZM605.165 461.22L605.613 460.852L603.709 458.534L603.261 458.902L605.165 461.22ZM605.229 461.081L611.759 458.41L610.623 455.633L604.093 458.305L605.229 461.081ZM611.307 458.517L695.442 451.976L695.21 448.985L611.075 455.526L611.307 458.517ZM693.83 450.592L694.038 453.377L697.03 453.154L696.822 450.369L693.83 450.592ZM695.422 451.77L604.103 458.583L604.326 461.574L695.646 454.761L695.422 451.77ZM603.431 461.358L603.892 461.64L605.459 459.082L604.998 458.799L603.431 461.358ZM604.314 461.817L605.839 462.196L606.563 459.285L605.038 458.905L604.314 461.817ZM606.09 459.245L605.249 459.307L605.472 462.299L606.313 462.236L606.09 459.245ZM604.554 462.068L604.628 462.115L606.241 459.586L606.167 459.539L604.554 462.068ZM605.546 462.346L606.457 462.278L606.234 459.287L605.323 459.355L605.546 462.346ZM605.991 462.24L692.626 483.292L693.334 480.377L606.7 459.325L605.991 462.24ZM694.437 482.189C697.312 470.388 697.468 460.462 697.056 453.979L694.062 454.169C694.459 460.414 694.312 470.029 691.523 481.479L694.437 482.189ZM695.448 452.578L621.488 458.096L621.711 461.088L695.671 455.57L695.448 452.578ZM621.716 461.087L695.658 455.342L695.426 452.351L621.483 458.096L621.716 461.087ZM697.038 453.735C697.038 453.734 697.038 453.734 697.038 453.734C697.038 453.733 697.038 453.733 697.038 453.733C697.038 453.732 697.038 453.732 697.038 453.732C697.038 453.731 697.038 453.731 697.038 453.731C697.038 453.73 697.038 453.73 697.038 453.73C697.038 453.729 697.038 453.729 697.038 453.728C697.038 453.728 697.038 453.728 697.038 453.727C697.038 453.727 697.038 453.727 697.037 453.727C697.037 453.726 697.037 453.726 697.037 453.725C697.037 453.725 697.037 453.725 697.037 453.724C697.037 453.724 697.037 453.724 697.037 453.723C697.037 453.723 697.037 453.723 697.037 453.722C697.037 453.722 697.037 453.722 697.037 453.721C697.037 453.721 697.037 453.721 697.037 453.72C697.037 453.72 697.037 453.72 697.037 453.719C697.037 453.719 697.037 453.719 697.037 453.718C697.037 453.718 697.037 453.718 697.037 453.717C697.037 453.717 697.037 453.717 697.037 453.716C697.037 453.716 697.037 453.716 697.037 453.715C697.037 453.715 697.037 453.715 697.037 453.714C697.037 453.714 697.037 453.714 697.036 453.713C697.036 453.713 697.036 453.713 697.036 453.712C697.036 453.712 697.036 453.712 697.036 453.711C697.036 453.711 697.036 453.71 697.036 453.71C697.036 453.71 697.036 453.709 697.036 453.709C697.036 453.709 697.036 453.709 697.036 453.708C697.036 453.708 697.036 453.707 697.036 453.707C697.036 453.707 697.036 453.706 697.036 453.706C697.036 453.706 697.036 453.705 697.036 453.705C697.036 453.705 697.036 453.704 697.036 453.704C697.036 453.704 697.036 453.703 697.036 453.703C697.036 453.703 697.036 453.702 697.036 453.702C697.036 453.702 697.036 453.701 697.036 453.701C697.036 453.701 697.036 453.7 697.036 453.7C697.035 453.7 697.035 453.699 697.035 453.699C697.035 453.699 697.035 453.698 697.035 453.698C697.035 453.698 697.035 453.697 697.035 453.697C697.035 453.697 697.035 453.696 697.035 453.696C697.035 453.696 697.035 453.695 697.035 453.695C697.035 453.695 697.035 453.694 697.035 453.694C697.035 453.694 697.035 453.693 697.035 453.693C697.035 453.693 697.035 453.692 697.035 453.692C697.035 453.692 697.035 453.691 697.035 453.691C697.035 453.691 697.035 453.69 697.035 453.69C697.035 453.69 697.035 453.689 697.035 453.689C697.035 453.689 697.035 453.688 697.035 453.688C697.035 453.688 697.035 453.687 697.035 453.687C697.034 453.686 697.034 453.686 697.034 453.686C697.034 453.686 697.034 453.685 697.034 453.685C697.034 453.685 697.034 453.684 697.034 453.684C697.034 453.683 697.034 453.683 697.034 453.683C697.034 453.682 697.034 453.682 697.034 453.682C697.034 453.681 697.034 453.681 697.034 453.681C697.034 453.681 697.034 453.68 697.034 453.68C697.034 453.679 697.034 453.679 697.034 453.679C697.034 453.678 697.034 453.678 697.034 453.678C697.034 453.677 697.034 453.677 697.034 453.677C697.034 453.676 697.034 453.676 697.034 453.676C697.034 453.675 697.034 453.675 697.034 453.675C697.034 453.674 697.034 453.674 697.034 453.674C697.034 453.673 697.034 453.673 697.033 453.673C697.033 453.672 697.033 453.672 697.033 453.672C697.033 453.671 697.033 453.671 697.033 453.671C697.033 453.67 697.033 453.67 697.033 453.67C697.033 453.669 697.033 453.669 697.033 453.669C697.033 453.668 697.033 453.668 697.033 453.668C697.033 453.667 697.033 453.667 697.033 453.667C697.033 453.666 697.033 453.666 697.033 453.666C697.033 453.665 697.033 453.665 697.033 453.665C697.033 453.664 697.033 453.664 697.033 453.664C697.033 453.663 697.033 453.663 697.033 453.663C697.033 453.662 697.033 453.662 697.033 453.662C697.033 453.661 697.033 453.661 697.033 453.661C697.033 453.66 697.033 453.66 697.033 453.66C697.032 453.659 697.032 453.659 697.032 453.659C697.032 453.658 697.032 453.658 697.032 453.658C697.032 453.657 697.032 453.657 697.032 453.657C697.032 453.656 697.032 453.656 697.032 453.656C697.032 453.655 697.032 453.655 697.032 453.655C697.032 453.654 697.032 453.654 697.032 453.654C697.032 453.653 697.032 453.653 697.032 453.653C697.032 453.652 697.032 453.652 697.032 453.652C697.032 453.651 697.032 453.651 697.032 453.651C697.032 453.65 697.032 453.65 697.032 453.65C697.032 453.649 697.032 453.649 697.032 453.649C697.032 453.648 697.032 453.648 697.032 453.648C697.032 453.647 697.032 453.647 697.032 453.647C697.032 453.646 697.031 453.646 697.031 453.646C697.031 453.645 697.031 453.645 697.031 453.645C697.031 453.644 697.031 453.644 697.031 453.644C697.031 453.643 697.031 453.643 697.031 453.643C697.031 453.642 697.031 453.642 697.031 453.642C697.031 453.641 697.031 453.641 697.031 453.641C697.031 453.64 697.031 453.64 697.031 453.64C697.031 453.639 697.031 453.639 697.031 453.639C697.031 453.638 697.031 453.638 697.031 453.638C697.031 453.637 697.031 453.637 697.031 453.637C697.031 453.636 697.031 453.636 697.031 453.636C697.031 453.635 697.031 453.635 697.031 453.635C697.031 453.634 697.031 453.634 697.031 453.634C697.031 453.633 697.031 453.633 697.03 453.633C697.03 453.632 697.03 453.632 697.03 453.632C697.03 453.631 697.03 453.631 697.03 453.631C697.03 453.63 697.03 453.63 697.03 453.63C697.03 453.63 697.03 453.629 697.03 453.629C697.03 453.629 697.03 453.628 697.03 453.628C697.03 453.627 697.03 453.627 697.03 453.627C697.03 453.626 697.03 453.626 697.03 453.626C697.03 453.625 697.03 453.625 697.03 453.625C697.03 453.625 697.03 453.624 697.03 453.624C697.03 453.624 697.03 453.623 697.03 453.623C697.03 453.623 697.03 453.622 697.03 453.622C697.03 453.621 697.03 453.621 697.03 453.621C697.03 453.62 697.03 453.62 697.03 453.62C697.03 453.62 697.029 453.619 697.029 453.619C697.029 453.619 697.029 453.618 697.029 453.618C697.029 453.618 697.029 453.617 697.029 453.617C697.029 453.617 697.029 453.616 697.029 453.616C697.029 453.616 697.029 453.615 697.029 453.615C697.029 453.615 697.029 453.614 697.029 453.614C697.029 453.614 697.029 453.613 697.029 453.613C697.029 453.613 697.029 453.612 697.029 453.612C697.029 453.612 697.029 453.611 697.029 453.611C697.029 453.611 697.029 453.61 697.029 453.61C697.029 453.61 697.029 453.609 697.029 453.609C697.029 453.609 697.029 453.608 697.029 453.608C697.029 453.608 697.029 453.607 697.029 453.607C697.029 453.607 697.029 453.606 697.028 453.606C697.028 453.606 697.028 453.605 697.028 453.605C697.028 453.605 697.028 453.604 697.028 453.604C697.028 453.604 697.028 453.603 697.028 453.603C697.028 453.603 697.028 453.602 697.028 453.602C697.028 453.602 697.028 453.601 697.028 453.601C697.028 453.601 697.028 453.6 697.028 453.6C697.028 453.6 697.028 453.599 697.028 453.599C697.028 453.599 697.028 453.598 697.028 453.598C697.028 453.598 697.028 453.597 697.028 453.597C697.028 453.597 697.028 453.597 697.028 453.596C697.028 453.596 697.028 453.596 697.028 453.595C697.028 453.595 697.028 453.594 697.028 453.594C697.028 453.594 697.028 453.593 697.028 453.593C697.028 453.593 697.027 453.592 697.027 453.592C697.027 453.592 697.027 453.592 697.027 453.591C697.027 453.591 697.027 453.591 697.027 453.59C697.027 453.59 697.027 453.59 697.027 453.589C697.027 453.589 697.027 453.589 697.027 453.588C697.027 453.588 697.027 453.588 697.027 453.587C697.027 453.587 697.027 453.587 697.027 453.586C697.027 453.586 697.027 453.586 697.027 453.585C697.027 453.585 697.027 453.585 697.027 453.584C697.027 453.584 697.027 453.584 697.027 453.583C697.027 453.583 697.027 453.583 697.027 453.582C697.027 453.582 697.027 453.582 697.027 453.581C697.027 453.581 697.027 453.581 697.027 453.58C697.027 453.58 697.027 453.58 697.027 453.579C697.026 453.579 697.026 453.579 697.026 453.578C697.026 453.578 697.026 453.578 697.026 453.577C697.026 453.577 697.026 453.577 697.026 453.576C697.026 453.576 697.026 453.576 697.026 453.575C697.026 453.575 697.026 453.575 697.026 453.574C697.026 453.574 697.026 453.574 697.026 453.574C697.026 453.573 697.026 453.573 697.026 453.573C697.026 453.572 697.026 453.572 697.026 453.572C697.026 453.571 697.026 453.571 697.026 453.571C697.026 453.57 697.026 453.57 697.026 453.57C697.026 453.569 697.026 453.569 697.026 453.569C697.026 453.568 697.026 453.568 697.026 453.568C697.026 453.567 697.026 453.567 697.026 453.567C697.026 453.566 697.026 453.566 697.025 453.566C697.025 453.565 697.025 453.565 697.025 453.565C697.025 453.564 697.025 453.564 697.025 453.564C697.025 453.563 697.025 453.563 697.025 453.563C697.025 453.562 697.025 453.562 697.025 453.562C697.025 453.561 697.025 453.561 697.025 453.561C697.025 453.56 697.025 453.56 697.025 453.56C697.025 453.559 697.025 453.559 697.025 453.559C697.025 453.558 697.025 453.558 697.025 453.558C697.025 453.557 697.025 453.557 697.025 453.557C697.025 453.556 697.025 453.556 697.025 453.556C697.025 453.555 697.025 453.555 697.025 453.555C697.025 453.555 697.025 453.554 697.025 453.554C697.025 453.554 697.025 453.553 697.025 453.553C697.025 453.553 697.024 453.552 697.024 453.552C697.024 453.552 697.024 453.551 697.024 453.551C697.024 453.551 697.024 453.55 697.024 453.55C697.024 453.55 697.024 453.549 697.024 453.549C697.024 453.549 697.024 453.548 697.024 453.548C697.024 453.548 697.024 453.547 697.024 453.547C697.024 453.547 697.024 453.546 697.024 453.546C697.024 453.546 697.024 453.545 697.024 453.545C697.024 453.545 697.024 453.544 697.024 453.544C697.024 453.544 697.024 453.543 697.024 453.543C697.024 453.543 697.024 453.542 697.024 453.542C697.024 453.542 697.024 453.541 697.024 453.541C697.024 453.541 697.024 453.541 697.024 453.54C697.024 453.54 697.024 453.54 697.024 453.539C697.023 453.539 697.023 453.539 697.023 453.538C697.023 453.538 697.023 453.538 697.023 453.537C697.023 453.537 697.023 453.537 697.023 453.536C697.023 453.536 697.023 453.536 697.023 453.535C697.023 453.535 697.023 453.535 697.023 453.534C697.023 453.534 697.023 453.534 697.023 453.533C697.023 453.533 697.023 453.533 697.023 453.532C697.023 453.532 697.023 453.532 697.023 453.531C697.023 453.531 697.023 453.531 697.023 453.53C697.023 453.53 697.023 453.53 697.023 453.529C697.023 453.529 697.023 453.529 697.023 453.528C697.023 453.528 697.023 453.528 697.023 453.527C697.023 453.527 697.023 453.527 697.023 453.527C697.023 453.526 697.023 453.526 697.022 453.526C697.022 453.525 697.022 453.525 697.022 453.525C697.022 453.524 697.022 453.524 697.022 453.524C697.022 453.523 697.022 453.523 697.022 453.523C697.022 453.522 697.022 453.522 697.022 453.522C697.022 453.521 697.022 453.521 697.022 453.521C697.022 453.52 697.022 453.52 697.022 453.52C697.022 453.519 697.022 453.519 697.022 453.519C697.022 453.518 697.022 453.518 697.022 453.518C697.022 453.517 697.022 453.517 697.022 453.517C697.022 453.516 697.022 453.516 697.022 453.516C697.022 453.515 697.022 453.515 697.022 453.515C697.022 453.514 697.022 453.514 697.022 453.514C697.022 453.513 697.022 453.513 697.022 453.513C697.022 453.513 697.021 453.512 697.021 453.512C697.021 453.512 697.021 453.511 697.021 453.511C697.021 453.511 697.021 453.51 697.021 453.51C697.021 453.51 697.021 453.509 697.021 453.509C697.021 453.509 697.021 453.508 697.021 453.508C697.021 453.508 697.021 453.507 697.021 453.507C697.021 453.507 697.021 453.506 697.021 453.506C697.021 453.506 697.021 453.505 697.021 453.505C697.021 453.505 697.021 453.504 697.021 453.504C697.021 453.504 697.021 453.503 697.021 453.503C697.021 453.503 697.021 453.502 697.021 453.502C697.021 453.502 697.021 453.501 697.021 453.501C697.021 453.501 697.021 453.5 697.021 453.5C697.021 453.5 697.021 453.499 697.021 453.499C697.021 453.499 697.02 453.499 697.02 453.498C697.02 453.498 697.02 453.498 697.02 453.497C697.02 453.497 697.02 453.497 697.02 453.496C697.02 453.496 697.02 453.496 697.02 453.495C697.02 453.495 697.02 453.495 697.02 453.494C697.02 453.494 697.02 453.494 697.02 453.493C697.02 453.493 697.02 453.493 697.02 453.492C697.02 453.492 697.02 453.492 697.02 453.491C697.02 453.491 697.02 453.491 697.02 453.49C697.02 453.49 697.02 453.49 697.02 453.489C697.02 453.489 697.02 453.489 697.02 453.488C697.02 453.488 697.02 453.488 697.02 453.487C697.02 453.487 697.02 453.487 697.02 453.486C697.02 453.486 697.02 453.486 697.02 453.485C697.019 453.485 697.019 453.485 697.019 453.485C697.019 453.484 697.019 453.484 697.019 453.484C697.019 453.483 697.019 453.483 697.019 453.483C697.019 453.482 697.019 453.482 697.019 453.482C697.019 453.481 697.019 453.481 697.019 453.481C697.019 453.48 697.019 453.48 697.019 453.48C697.019 453.479 697.019 453.479 697.019 453.479C697.019 453.478 697.019 453.478 697.019 453.478C697.019 453.477 697.019 453.477 697.019 453.477C697.019 453.476 697.019 453.476 697.019 453.476C697.019 453.475 697.019 453.475 697.019 453.475C697.019 453.474 697.019 453.474 697.019 453.474C697.019 453.473 697.019 453.473 697.019 453.473C697.019 453.472 697.019 453.472 697.018 453.472C697.018 453.471 697.018 453.471 697.018 453.471C697.018 453.471 697.018 453.47 697.018 453.47C697.018 453.47 697.018 453.469 697.018 453.469C697.018 453.469 697.018 453.468 697.018 453.468C697.018 453.468 697.018 453.467 697.018 453.467C697.018 453.467 697.018 453.466 697.018 453.466C697.018 453.466 697.018 453.465 697.018 453.465C697.018 453.465 697.018 453.464 697.018 453.464C697.018 453.464 697.018 453.463 697.018 453.463C697.018 453.463 697.018 453.462 697.018 453.462C697.018 453.462 697.018 453.461 697.018 453.461C697.018 453.461 697.018 453.46 697.018 453.46C697.018 453.46 697.018 453.459 697.018 453.459C697.018 453.459 697.017 453.458 697.017 453.458C697.017 453.458 697.017 453.457 697.017 453.457C697.017 453.457 697.017 453.457 697.017 453.456C697.017 453.456 697.017 453.456 697.017 453.455C697.017 453.455 697.017 453.455 697.017 453.454C697.017 453.454 697.017 453.454 697.017 453.453C697.017 453.453 697.017 453.453 697.017 453.452C697.017 453.452 697.017 453.452 697.017 453.451C697.017 453.451 697.017 453.451 697.017 453.45C697.017 453.45 697.017 453.45 697.017 453.449C697.017 453.449 697.017 453.449 697.017 453.448C697.017 453.448 697.017 453.448 697.017 453.447C697.017 453.447 697.017 453.447 697.017 453.446C697.017 453.446 697.017 453.446 697.017 453.445C697.016 453.445 697.016 453.445 697.016 453.444C697.016 453.444 697.016 453.444 697.016 453.443C697.016 453.443 697.016 453.443 697.016 453.443C697.016 453.442 697.016 453.442 697.016 453.442C697.016 453.441 697.016 453.441 697.016 453.441C697.016 453.44 697.016 453.44 697.016 453.44C697.016 453.439 697.016 453.439 697.016 453.439C697.016 453.438 697.016 453.438 697.016 453.438C697.016 453.437 697.016 453.437 697.016 453.437C697.016 453.436 697.016 453.436 697.016 453.436C697.016 453.435 697.016 453.435 697.016 453.435C697.016 453.434 697.016 453.434 697.016 453.434C697.016 453.433 697.016 453.433 697.016 453.433C697.016 453.432 697.016 453.432 697.016 453.432C697.015 453.431 697.015 453.431 697.015 453.431C697.015 453.43 697.015 453.43 697.015 453.43C697.015 453.429 697.015 453.429 697.015 453.429C697.015 453.429 697.015 453.428 697.015 453.428C697.015 453.428 697.015 453.427 697.015 453.427C697.015 453.427 697.015 453.426 697.015 453.426C697.015 453.426 697.015 453.425 697.015 453.425C697.015 453.425 697.015 453.424 697.015 453.424C697.015 453.424 697.015 453.423 697.015 453.423C697.015 453.423 697.015 453.422 697.015 453.422C697.015 453.422 697.015 453.421 697.015 453.421C697.015 453.421 697.015 453.42 697.015 453.42C697.015 453.42 697.015 453.419 697.015 453.419C697.015 453.419 697.015 453.418 697.014 453.418C697.014 453.418 697.014 453.417 697.014 453.417C697.014 453.417 697.014 453.416 697.014 453.416C697.014 453.416 697.014 453.416 697.014 453.415C697.014 453.415 697.014 453.415 697.014 453.414C697.014 453.414 697.014 453.414 697.014 453.413C697.014 453.413 697.014 453.413 697.014 453.412C697.014 453.412 697.014 453.412 697.014 453.411C697.014 453.411 697.014 453.411 697.014 453.41C697.014 453.41 697.014 453.41 697.014 453.409C697.014 453.409 697.014 453.409 697.014 453.408C697.014 453.408 697.014 453.408 697.014 453.407C697.014 453.407 697.014 453.407 697.014 453.406C697.014 453.406 697.014 453.406 697.014 453.405C697.014 453.405 697.013 453.405 697.013 453.404C697.013 453.404 697.013 453.404 697.013 453.403C697.013 453.403 697.013 453.403 697.013 453.402C697.013 453.402 697.013 453.402 697.013 453.402C697.013 453.401 697.013 453.401 697.013 453.401C697.013 453.4 697.013 453.4 697.013 453.4C697.013 453.399 697.013 453.399 697.013 453.399C697.013 453.398 697.013 453.398 697.013 453.398C697.013 453.397 697.013 453.397 697.013 453.397C697.013 453.396 697.013 453.396 697.013 453.396C697.013 453.395 697.013 453.395 697.013 453.395C697.013 453.394 697.013 453.394 697.013 453.394C697.013 453.393 697.013 453.393 697.013 453.393C697.013 453.392 697.013 453.392 697.013 453.392C697.012 453.391 697.012 453.391 697.012 453.391C697.012 453.39 697.012 453.39 697.012 453.39C697.012 453.389 697.012 453.389 697.012 453.389C697.012 453.388 697.012 453.388 697.012 453.388C697.012 453.387 697.012 453.387 697.012 453.387C697.012 453.386 697.012 453.386 697.012 453.386C697.012 453.385 697.012 453.385 697.012 453.385C697.012 453.384 697.012 453.384 697.012 453.384C697.012 453.383 697.012 453.383 697.012 453.383C697.012 453.383 697.012 453.382 697.012 453.382C697.012 453.382 697.012 453.381 697.012 453.381C697.012 453.381 697.012 453.38 697.012 453.38C697.012 453.38 697.012 453.379 697.012 453.379C697.012 453.379 697.012 453.378 697.011 453.378C697.011 453.378 697.011 453.377 697.011 453.377C697.011 453.377 697.011 453.376 697.011 453.376C697.011 453.376 697.011 453.375 697.011 453.375C697.011 453.375 697.011 453.374 697.011 453.374C697.011 453.374 697.011 453.373 697.011 453.373C697.011 453.373 697.011 453.372 697.011 453.372C697.011 453.372 697.011 453.371 697.011 453.371C697.011 453.371 697.011 453.37 697.011 453.37C697.011 453.37 697.011 453.369 697.011 453.369C697.011 453.369 697.011 453.368 697.011 453.368C697.011 453.368 697.011 453.367 697.011 453.367C697.011 453.367 697.011 453.366 697.011 453.366C697.011 453.366 697.011 453.365 697.011 453.365C697.01 453.365 697.01 453.364 697.01 453.364C697.01 453.364 697.01 453.364 697.01 453.363C697.01 453.363 697.01 453.362 697.01 453.362C697.01 453.362 697.01 453.361 697.01 453.361C697.01 453.361 697.01 453.36 697.01 453.36C697.01 453.36 697.01 453.36 697.01 453.359C697.01 453.359 697.01 453.359 697.01 453.358C697.01 453.358 697.01 453.358 697.01 453.357C697.01 453.357 697.01 453.357 697.01 453.356C697.01 453.356 697.01 453.356 697.01 453.355C697.01 453.355 697.01 453.355 697.01 453.354C697.01 453.354 697.01 453.354 697.01 453.353C697.01 453.353 697.01 453.353 697.01 453.352C697.01 453.352 697.01 453.352 697.009 453.351C697.009 453.351 697.009 453.351 697.009 453.35C697.009 453.35 697.009 453.35 697.009 453.349C697.009 453.349 697.009 453.349 697.009 453.348C697.009 453.348 697.009 453.348 697.009 453.347C697.009 453.347 697.009 453.347 697.009 453.346C697.009 453.346 697.009 453.346 697.009 453.345C697.009 453.345 697.009 453.345 697.009 453.344C697.009 453.344 697.009 453.344 697.009 453.343C697.009 453.343 697.009 453.343 697.009 453.342C697.009 453.342 697.009 453.342 697.009 453.341C697.009 453.341 697.009 453.341 697.009 453.34C697.009 453.34 697.009 453.34 697.009 453.339C697.009 453.339 697.009 453.339 697.009 453.338C697.009 453.338 697.008 453.338 697.008 453.337C697.008 453.337 697.008 453.337 697.008 453.336C697.008 453.336 697.008 453.336 697.008 453.335C697.008 453.335 697.008 453.335 697.008 453.334C697.008 453.334 697.008 453.334 697.008 453.333C697.008 453.333 697.008 453.333 697.008 453.332C697.008 453.332 697.008 453.332 697.008 453.332C697.008 453.331 697.008 453.331 697.008 453.33C697.008 453.33 697.008 453.33 697.008 453.329C697.008 453.329 697.008 453.329 697.008 453.328C697.008 453.328 697.008 453.328 697.008 453.327C697.008 453.327 697.008 453.327 697.008 453.327C697.008 453.326 697.008 453.326 697.008 453.326C697.008 453.325 697.008 453.325 697.007 453.324C697.007 453.324 697.007 453.324 697.007 453.323C697.007 453.323 697.007 453.323 697.007 453.322C697.007 453.322 697.007 453.322 697.007 453.322C697.007 453.321 697.007 453.321 697.007 453.321C697.007 453.32 697.007 453.32 697.007 453.32C697.007 453.319 697.007 453.319 697.007 453.318C697.007 453.318 697.007 453.318 697.007 453.318C697.007 453.317 697.007 453.317 697.007 453.317C697.007 453.316 697.007 453.316 697.007 453.316C697.007 453.315 697.007 453.315 697.007 453.315C697.007 453.314 697.007 453.314 697.007 453.313C697.007 453.313 697.007 453.313 697.007 453.313C697.007 453.312 697.007 453.312 697.007 453.312C697.007 453.311 697.006 453.311 697.006 453.311C697.006 453.31 697.006 453.31 697.006 453.31C697.006 453.309 697.006 453.309 697.006 453.308C697.006 453.308 697.006 453.308 697.006 453.308C697.006 453.307 697.006 453.307 697.006 453.307C697.006 453.306 697.006 453.306 697.006 453.306C697.006 453.305 697.006 453.305 697.006 453.305C697.006 453.304 697.006 453.304 697.006 453.304C697.006 453.303 697.006 453.303 697.006 453.303C697.006 453.302 697.006 453.302 697.006 453.302C697.006 453.301 697.006 453.301 697.006 453.301C697.006 453.3 697.006 453.3 697.006 453.299C697.006 453.299 697.006 453.299 697.006 453.299C697.006 453.298 697.006 453.298 697.005 453.298C697.005 453.297 697.005 453.297 697.005 453.297C697.005 453.296 697.005 453.296 697.005 453.295C697.005 453.295 697.005 453.295 697.005 453.294C697.005 453.294 697.005 453.294 697.005 453.294C697.005 453.293 697.005 453.293 697.005 453.293C697.005 453.292 697.005 453.292 697.005 453.291C697.005 453.291 697.005 453.291 697.005 453.29C697.005 453.29 697.005 453.29 697.005 453.29C697.005 453.289 697.005 453.289 697.005 453.289C697.005 453.288 697.005 453.288 697.005 453.287C697.005 453.287 697.005 453.287 697.005 453.286C697.005 453.286 697.005 453.286 697.005 453.285C697.005 453.285 697.005 453.285 697.005 453.285C697.004 453.284 697.004 453.284 697.004 453.283C697.004 453.283 697.004 453.283 697.004 453.282C697.004 453.282 697.004 453.282 697.004 453.281C697.004 453.281 697.004 453.281 697.004 453.28C697.004 453.28 697.004 453.28 697.004 453.279C697.004 453.279 697.004 453.279 697.004 453.278C697.004 453.278 697.004 453.278 697.004 453.277C697.004 453.277 697.004 453.277 697.004 453.276C697.004 453.276 697.004 453.276 697.004 453.275C697.004 453.275 697.004 453.275 697.004 453.274C697.004 453.274 697.004 453.274 697.004 453.273C697.004 453.273 697.004 453.273 697.004 453.272C697.004 453.272 697.004 453.272 697.004 453.271C697.004 453.271 697.003 453.271 697.003 453.27C697.003 453.27 697.003 453.27 697.003 453.269C697.003 453.269 697.003 453.269 697.003 453.268C697.003 453.268 697.003 453.268 697.003 453.267C697.003 453.267 697.003 453.267 697.003 453.266C697.003 453.266 697.003 453.266 697.003 453.265C697.003 453.265 697.003 453.265 697.003 453.264C697.003 453.264 697.003 453.264 697.003 453.263C697.003 453.263 697.003 453.263 697.003 453.262C697.003 453.262 697.003 453.262 697.003 453.261C697.003 453.261 697.003 453.261 697.003 453.26C697.003 453.26 697.003 453.26 697.003 453.259C697.003 453.259 697.003 453.259 697.003 453.258C697.003 453.258 697.002 453.257 697.002 453.257C697.002 453.257 697.002 453.257 697.002 453.256C697.002 453.256 697.002 453.256 697.002 453.255C697.002 453.255 697.002 453.254 697.002 453.254C697.002 453.254 697.002 453.253 697.002 453.253C697.002 453.253 697.002 453.253 697.002 453.252C697.002 453.252 697.002 453.251 697.002 453.251C697.002 453.251 697.002 453.25 697.002 453.25C697.002 453.25 697.002 453.249 697.002 453.249C697.002 453.249 697.002 453.248 697.002 453.248C697.002 453.248 697.002 453.247 697.002 453.247C697.002 453.247 697.002 453.246 697.002 453.246C697.002 453.246 697.002 453.245 697.002 453.245C697.002 453.245 697.002 453.244 697.001 453.244C697.001 453.244 697.001 453.243 697.001 453.243C697.001 453.243 697.001 453.242 697.001 453.242C697.001 453.242 697.001 453.241 697.001 453.241C697.001 453.241 697.001 453.24 697.001 453.24C697.001 453.24 697.001 453.239 697.001 453.239C697.001 453.239 697.001 453.238 697.001 453.238C697.001 453.238 697.001 453.237 697.001 453.237C697.001 453.236 697.001 453.236 697.001 453.236C697.001 453.235 697.001 453.235 697.001 453.235C697.001 453.234 697.001 453.234 697.001 453.234C697.001 453.233 697.001 453.233 697.001 453.233C697.001 453.232 697.001 453.232 697.001 453.232C697.001 453.231 697.001 453.231 697 453.231C697 453.23 697 453.23 697 453.23C697 453.229 697 453.229 697 453.229C697 453.228 697 453.228 697 453.228C697 453.227 697 453.227 697 453.227L694.009 453.45C694.009 453.45 694.009 453.45 694.009 453.451C694.009 453.451 694.009 453.451 694.009 453.452C694.009 453.452 694.009 453.452 694.009 453.453C694.009 453.453 694.009 453.454 694.009 453.454C694.009 453.454 694.009 453.455 694.009 453.455C694.009 453.455 694.009 453.456 694.009 453.456C694.009 453.456 694.009 453.457 694.009 453.457C694.009 453.457 694.009 453.458 694.009 453.458C694.009 453.458 694.009 453.459 694.009 453.459C694.009 453.459 694.009 453.46 694.009 453.46C694.009 453.46 694.009 453.461 694.009 453.461C694.009 453.461 694.009 453.462 694.009 453.462C694.009 453.462 694.009 453.463 694.009 453.463C694.01 453.463 694.01 453.464 694.01 453.464C694.01 453.464 694.01 453.465 694.01 453.465C694.01 453.465 694.01 453.466 694.01 453.466C694.01 453.466 694.01 453.467 694.01 453.467C694.01 453.468 694.01 453.468 694.01 453.468C694.01 453.469 694.01 453.469 694.01 453.469C694.01 453.469 694.01 453.47 694.01 453.47C694.01 453.471 694.01 453.471 694.01 453.471C694.01 453.472 694.01 453.472 694.01 453.472C694.01 453.473 694.01 453.473 694.01 453.473C694.01 453.474 694.01 453.474 694.01 453.474C694.01 453.475 694.01 453.475 694.01 453.475C694.01 453.476 694.01 453.476 694.01 453.476C694.011 453.477 694.011 453.477 694.011 453.477C694.011 453.478 694.011 453.478 694.011 453.478C694.011 453.479 694.011 453.479 694.011 453.479C694.011 453.48 694.011 453.48 694.011 453.48C694.011 453.481 694.011 453.481 694.011 453.481C694.011 453.482 694.011 453.482 694.011 453.482C694.011 453.483 694.011 453.483 694.011 453.483C694.011 453.484 694.011 453.484 694.011 453.484C694.011 453.485 694.011 453.485 694.011 453.485C694.011 453.486 694.011 453.486 694.011 453.487C694.011 453.487 694.011 453.487 694.011 453.488C694.011 453.488 694.011 453.488 694.011 453.488C694.011 453.489 694.011 453.489 694.011 453.489C694.011 453.49 694.012 453.49 694.012 453.491C694.012 453.491 694.012 453.491 694.012 453.492C694.012 453.492 694.012 453.492 694.012 453.492C694.012 453.493 694.012 453.493 694.012 453.494C694.012 453.494 694.012 453.494 694.012 453.495C694.012 453.495 694.012 453.495 694.012 453.496C694.012 453.496 694.012 453.496 694.012 453.497C694.012 453.497 694.012 453.497 694.012 453.498C694.012 453.498 694.012 453.498 694.012 453.499C694.012 453.499 694.012 453.499 694.012 453.5C694.012 453.5 694.012 453.5 694.012 453.501C694.012 453.501 694.012 453.501 694.012 453.502C694.012 453.502 694.012 453.502 694.012 453.503C694.012 453.503 694.012 453.503 694.013 453.504C694.013 453.504 694.013 453.504 694.013 453.505C694.013 453.505 694.013 453.505 694.013 453.506C694.013 453.506 694.013 453.506 694.013 453.507C694.013 453.507 694.013 453.507 694.013 453.508C694.013 453.508 694.013 453.508 694.013 453.509C694.013 453.509 694.013 453.509 694.013 453.51C694.013 453.51 694.013 453.51 694.013 453.511C694.013 453.511 694.013 453.511 694.013 453.512C694.013 453.512 694.013 453.512 694.013 453.513C694.013 453.513 694.013 453.513 694.013 453.514C694.013 453.514 694.013 453.514 694.013 453.515C694.013 453.515 694.013 453.515 694.013 453.516C694.013 453.516 694.013 453.516 694.013 453.517C694.014 453.517 694.014 453.517 694.014 453.518C694.014 453.518 694.014 453.518 694.014 453.519C694.014 453.519 694.014 453.519 694.014 453.52C694.014 453.52 694.014 453.52 694.014 453.521C694.014 453.521 694.014 453.521 694.014 453.522C694.014 453.522 694.014 453.522 694.014 453.523C694.014 453.523 694.014 453.523 694.014 453.524C694.014 453.524 694.014 453.524 694.014 453.525C694.014 453.525 694.014 453.525 694.014 453.526C694.014 453.526 694.014 453.526 694.014 453.527C694.014 453.527 694.014 453.527 694.014 453.528C694.014 453.528 694.014 453.528 694.014 453.529C694.014 453.529 694.014 453.529 694.014 453.53C694.014 453.53 694.015 453.53 694.015 453.531C694.015 453.531 694.015 453.531 694.015 453.532C694.015 453.532 694.015 453.532 694.015 453.533C694.015 453.533 694.015 453.533 694.015 453.534C694.015 453.534 694.015 453.534 694.015 453.535C694.015 453.535 694.015 453.535 694.015 453.536C694.015 453.536 694.015 453.536 694.015 453.537C694.015 453.537 694.015 453.537 694.015 453.538C694.015 453.538 694.015 453.538 694.015 453.539C694.015 453.539 694.015 453.539 694.015 453.54C694.015 453.54 694.015 453.54 694.015 453.541C694.015 453.541 694.015 453.541 694.015 453.542C694.015 453.542 694.015 453.542 694.015 453.543C694.015 453.543 694.015 453.543 694.016 453.544C694.016 453.544 694.016 453.544 694.016 453.545C694.016 453.545 694.016 453.545 694.016 453.546C694.016 453.546 694.016 453.546 694.016 453.547C694.016 453.547 694.016 453.547 694.016 453.548C694.016 453.548 694.016 453.548 694.016 453.549C694.016 453.549 694.016 453.549 694.016 453.55C694.016 453.55 694.016 453.55 694.016 453.551C694.016 453.551 694.016 453.551 694.016 453.552C694.016 453.552 694.016 453.552 694.016 453.553C694.016 453.553 694.016 453.553 694.016 453.554C694.016 453.554 694.016 453.554 694.016 453.555C694.016 453.555 694.016 453.555 694.016 453.556C694.016 453.556 694.016 453.556 694.016 453.557C694.017 453.557 694.017 453.557 694.017 453.558C694.017 453.558 694.017 453.558 694.017 453.559C694.017 453.559 694.017 453.559 694.017 453.56C694.017 453.56 694.017 453.56 694.017 453.561C694.017 453.561 694.017 453.561 694.017 453.562C694.017 453.562 694.017 453.562 694.017 453.563C694.017 453.563 694.017 453.563 694.017 453.564C694.017 453.564 694.017 453.564 694.017 453.565C694.017 453.565 694.017 453.565 694.017 453.566C694.017 453.566 694.017 453.566 694.017 453.567C694.017 453.567 694.017 453.567 694.017 453.568C694.017 453.568 694.017 453.568 694.017 453.569C694.017 453.569 694.017 453.569 694.017 453.57C694.017 453.57 694.017 453.57 694.018 453.571C694.018 453.571 694.018 453.571 694.018 453.571C694.018 453.572 694.018 453.572 694.018 453.572C694.018 453.573 694.018 453.573 694.018 453.573C694.018 453.574 694.018 453.574 694.018 453.574C694.018 453.575 694.018 453.575 694.018 453.576C694.018 453.576 694.018 453.576 694.018 453.576C694.018 453.577 694.018 453.577 694.018 453.577C694.018 453.578 694.018 453.578 694.018 453.578C694.018 453.579 694.018 453.579 694.018 453.579C694.018 453.58 694.018 453.58 694.018 453.58C694.018 453.581 694.018 453.581 694.018 453.581C694.018 453.582 694.018 453.582 694.018 453.582C694.018 453.583 694.018 453.583 694.018 453.583C694.018 453.584 694.019 453.584 694.019 453.584C694.019 453.585 694.019 453.585 694.019 453.585C694.019 453.586 694.019 453.586 694.019 453.586C694.019 453.587 694.019 453.587 694.019 453.587C694.019 453.588 694.019 453.588 694.019 453.588C694.019 453.589 694.019 453.589 694.019 453.589C694.019 453.59 694.019 453.59 694.019 453.59C694.019 453.591 694.019 453.591 694.019 453.591C694.019 453.592 694.019 453.592 694.019 453.592C694.019 453.593 694.019 453.593 694.019 453.593C694.019 453.594 694.019 453.594 694.019 453.594C694.019 453.595 694.019 453.595 694.019 453.595C694.019 453.595 694.019 453.596 694.019 453.596C694.019 453.596 694.019 453.597 694.02 453.597C694.02 453.598 694.02 453.598 694.02 453.598C694.02 453.599 694.02 453.599 694.02 453.599C694.02 453.599 694.02 453.6 694.02 453.6C694.02 453.6 694.02 453.601 694.02 453.601C694.02 453.601 694.02 453.602 694.02 453.602C694.02 453.602 694.02 453.603 694.02 453.603C694.02 453.603 694.02 453.604 694.02 453.604C694.02 453.604 694.02 453.605 694.02 453.605C694.02 453.605 694.02 453.606 694.02 453.606C694.02 453.606 694.02 453.607 694.02 453.607C694.02 453.607 694.02 453.608 694.02 453.608C694.02 453.608 694.02 453.609 694.02 453.609C694.02 453.609 694.02 453.61 694.02 453.61C694.02 453.61 694.02 453.611 694.021 453.611C694.021 453.611 694.021 453.612 694.021 453.612C694.021 453.612 694.021 453.613 694.021 453.613C694.021 453.613 694.021 453.613 694.021 453.614C694.021 453.614 694.021 453.615 694.021 453.615C694.021 453.615 694.021 453.616 694.021 453.616C694.021 453.616 694.021 453.617 694.021 453.617C694.021 453.617 694.021 453.618 694.021 453.618C694.021 453.618 694.021 453.618 694.021 453.619C694.021 453.619 694.021 453.619 694.021 453.62C694.021 453.62 694.021 453.62 694.021 453.621C694.021 453.621 694.021 453.621 694.021 453.622C694.021 453.622 694.021 453.622 694.021 453.623C694.021 453.623 694.021 453.623 694.021 453.624C694.021 453.624 694.022 453.624 694.022 453.625C694.022 453.625 694.022 453.625 694.022 453.626C694.022 453.626 694.022 453.626 694.022 453.627C694.022 453.627 694.022 453.627 694.022 453.628C694.022 453.628 694.022 453.628 694.022 453.629C694.022 453.629 694.022 453.629 694.022 453.63C694.022 453.63 694.022 453.63 694.022 453.631C694.022 453.631 694.022 453.631 694.022 453.632C694.022 453.632 694.022 453.632 694.022 453.632C694.022 453.633 694.022 453.633 694.022 453.633C694.022 453.634 694.022 453.634 694.022 453.634C694.022 453.635 694.022 453.635 694.022 453.635C694.022 453.636 694.022 453.636 694.022 453.636C694.022 453.637 694.022 453.637 694.022 453.637C694.023 453.638 694.023 453.638 694.023 453.638C694.023 453.639 694.023 453.639 694.023 453.639C694.023 453.64 694.023 453.64 694.023 453.64C694.023 453.641 694.023 453.641 694.023 453.641C694.023 453.642 694.023 453.642 694.023 453.642C694.023 453.643 694.023 453.643 694.023 453.643C694.023 453.644 694.023 453.644 694.023 453.644C694.023 453.645 694.023 453.645 694.023 453.645C694.023 453.646 694.023 453.646 694.023 453.646C694.023 453.646 694.023 453.647 694.023 453.647C694.023 453.648 694.023 453.648 694.023 453.648C694.023 453.649 694.023 453.649 694.023 453.649C694.023 453.65 694.023 453.65 694.023 453.65C694.023 453.651 694.023 453.651 694.024 453.651C694.024 453.651 694.024 453.652 694.024 453.652C694.024 453.652 694.024 453.653 694.024 453.653C694.024 453.653 694.024 453.654 694.024 453.654C694.024 453.654 694.024 453.655 694.024 453.655C694.024 453.655 694.024 453.656 694.024 453.656C694.024 453.656 694.024 453.657 694.024 453.657C694.024 453.657 694.024 453.658 694.024 453.658C694.024 453.658 694.024 453.659 694.024 453.659C694.024 453.659 694.024 453.66 694.024 453.66C694.024 453.66 694.024 453.661 694.024 453.661C694.024 453.661 694.024 453.662 694.024 453.662C694.024 453.662 694.024 453.663 694.024 453.663C694.024 453.663 694.024 453.664 694.024 453.664C694.024 453.664 694.025 453.665 694.025 453.665C694.025 453.665 694.025 453.665 694.025 453.666C694.025 453.666 694.025 453.666 694.025 453.667C694.025 453.667 694.025 453.667 694.025 453.668C694.025 453.668 694.025 453.668 694.025 453.669C694.025 453.669 694.025 453.669 694.025 453.67C694.025 453.67 694.025 453.67 694.025 453.671C694.025 453.671 694.025 453.671 694.025 453.672C694.025 453.672 694.025 453.672 694.025 453.673C694.025 453.673 694.025 453.673 694.025 453.674C694.025 453.674 694.025 453.674 694.025 453.675C694.025 453.675 694.025 453.675 694.025 453.676C694.025 453.676 694.025 453.676 694.025 453.677C694.025 453.677 694.025 453.677 694.025 453.678C694.026 453.678 694.026 453.678 694.026 453.679C694.026 453.679 694.026 453.679 694.026 453.679C694.026 453.68 694.026 453.68 694.026 453.68C694.026 453.681 694.026 453.681 694.026 453.681C694.026 453.682 694.026 453.682 694.026 453.682C694.026 453.683 694.026 453.683 694.026 453.683C694.026 453.684 694.026 453.684 694.026 453.684C694.026 453.685 694.026 453.685 694.026 453.685C694.026 453.686 694.026 453.686 694.026 453.686C694.026 453.687 694.026 453.687 694.026 453.687C694.026 453.688 694.026 453.688 694.026 453.688C694.026 453.688 694.026 453.689 694.026 453.689C694.026 453.689 694.026 453.69 694.026 453.69C694.026 453.69 694.026 453.691 694.027 453.691C694.027 453.692 694.027 453.692 694.027 453.692C694.027 453.693 694.027 453.693 694.027 453.693C694.027 453.693 694.027 453.694 694.027 453.694C694.027 453.694 694.027 453.695 694.027 453.695C694.027 453.695 694.027 453.696 694.027 453.696C694.027 453.696 694.027 453.697 694.027 453.697C694.027 453.697 694.027 453.698 694.027 453.698C694.027 453.698 694.027 453.699 694.027 453.699C694.027 453.699 694.027 453.7 694.027 453.7C694.027 453.7 694.027 453.701 694.027 453.701C694.027 453.701 694.027 453.702 694.027 453.702C694.027 453.702 694.027 453.702 694.027 453.703C694.027 453.703 694.027 453.703 694.027 453.704C694.027 453.704 694.028 453.704 694.028 453.705C694.028 453.705 694.028 453.705 694.028 453.706C694.028 453.706 694.028 453.706 694.028 453.707C694.028 453.707 694.028 453.707 694.028 453.708C694.028 453.708 694.028 453.708 694.028 453.709C694.028 453.709 694.028 453.709 694.028 453.71C694.028 453.71 694.028 453.71 694.028 453.711C694.028 453.711 694.028 453.711 694.028 453.712C694.028 453.712 694.028 453.712 694.028 453.713C694.028 453.713 694.028 453.713 694.028 453.714C694.028 453.714 694.028 453.714 694.028 453.715C694.028 453.715 694.028 453.715 694.028 453.716C694.028 453.716 694.028 453.716 694.028 453.716C694.028 453.717 694.028 453.717 694.028 453.717C694.029 453.718 694.029 453.718 694.029 453.718C694.029 453.719 694.029 453.719 694.029 453.719C694.029 453.72 694.029 453.72 694.029 453.72C694.029 453.721 694.029 453.721 694.029 453.721C694.029 453.722 694.029 453.722 694.029 453.722C694.029 453.723 694.029 453.723 694.029 453.723C694.029 453.724 694.029 453.724 694.029 453.724C694.029 453.725 694.029 453.725 694.029 453.725C694.029 453.726 694.029 453.726 694.029 453.726C694.029 453.727 694.029 453.727 694.029 453.727C694.029 453.728 694.029 453.728 694.029 453.728C694.029 453.729 694.029 453.729 694.029 453.729C694.029 453.73 694.029 453.73 694.029 453.73C694.029 453.73 694.029 453.731 694.029 453.731C694.03 453.731 694.03 453.732 694.03 453.732C694.03 453.732 694.03 453.733 694.03 453.733C694.03 453.733 694.03 453.734 694.03 453.734C694.03 453.734 694.03 453.735 694.03 453.735C694.03 453.735 694.03 453.736 694.03 453.736C694.03 453.736 694.03 453.737 694.03 453.737C694.03 453.737 694.03 453.738 694.03 453.738C694.03 453.738 694.03 453.739 694.03 453.739C694.03 453.739 694.03 453.74 694.03 453.74C694.03 453.74 694.03 453.741 694.03 453.741C694.03 453.741 694.03 453.742 694.03 453.742C694.03 453.742 694.03 453.743 694.03 453.743C694.03 453.743 694.03 453.744 694.03 453.744C694.03 453.744 694.03 453.744 694.031 453.745C694.031 453.745 694.031 453.745 694.031 453.746C694.031 453.746 694.031 453.746 694.031 453.747C694.031 453.747 694.031 453.747 694.031 453.748C694.031 453.748 694.031 453.748 694.031 453.749C694.031 453.749 694.031 453.749 694.031 453.75C694.031 453.75 694.031 453.75 694.031 453.751C694.031 453.751 694.031 453.751 694.031 453.752C694.031 453.752 694.031 453.752 694.031 453.753C694.031 453.753 694.031 453.753 694.031 453.754C694.031 453.754 694.031 453.754 694.031 453.755C694.031 453.755 694.031 453.755 694.031 453.756C694.031 453.756 694.031 453.756 694.031 453.757C694.031 453.757 694.031 453.757 694.031 453.758C694.031 453.758 694.032 453.758 694.032 453.758C694.032 453.759 694.032 453.759 694.032 453.759C694.032 453.76 694.032 453.76 694.032 453.76C694.032 453.761 694.032 453.761 694.032 453.761C694.032 453.762 694.032 453.762 694.032 453.762C694.032 453.763 694.032 453.763 694.032 453.763C694.032 453.764 694.032 453.764 694.032 453.764C694.032 453.765 694.032 453.765 694.032 453.765C694.032 453.766 694.032 453.766 694.032 453.766C694.032 453.767 694.032 453.767 694.032 453.767C694.032 453.768 694.032 453.768 694.032 453.768C694.032 453.769 694.032 453.769 694.032 453.769C694.032 453.77 694.032 453.77 694.032 453.77C694.032 453.771 694.032 453.771 694.032 453.771C694.033 453.772 694.033 453.772 694.033 453.772C694.033 453.772 694.033 453.773 694.033 453.773C694.033 453.773 694.033 453.774 694.033 453.774C694.033 453.774 694.033 453.775 694.033 453.775C694.033 453.775 694.033 453.776 694.033 453.776C694.033 453.776 694.033 453.777 694.033 453.777C694.033 453.777 694.033 453.778 694.033 453.778C694.033 453.778 694.033 453.779 694.033 453.779C694.033 453.779 694.033 453.78 694.033 453.78C694.033 453.78 694.033 453.781 694.033 453.781C694.033 453.781 694.033 453.782 694.033 453.782C694.033 453.782 694.033 453.783 694.033 453.783C694.033 453.783 694.033 453.784 694.033 453.784C694.033 453.784 694.033 453.785 694.034 453.785C694.034 453.785 694.034 453.786 694.034 453.786C694.034 453.786 694.034 453.787 694.034 453.787C694.034 453.787 694.034 453.788 694.034 453.788C694.034 453.788 694.034 453.789 694.034 453.789C694.034 453.789 694.034 453.79 694.034 453.79C694.034 453.79 694.034 453.79 694.034 453.791C694.034 453.791 694.034 453.791 694.034 453.792C694.034 453.792 694.034 453.792 694.034 453.793C694.034 453.793 694.034 453.793 694.034 453.794C694.034 453.794 694.034 453.794 694.034 453.795C694.034 453.795 694.034 453.795 694.034 453.796C694.034 453.796 694.034 453.796 694.034 453.797C694.034 453.797 694.034 453.797 694.034 453.798C694.034 453.798 694.035 453.798 694.035 453.799C694.035 453.799 694.035 453.799 694.035 453.8C694.035 453.8 694.035 453.8 694.035 453.801C694.035 453.801 694.035 453.801 694.035 453.802C694.035 453.802 694.035 453.802 694.035 453.803C694.035 453.803 694.035 453.803 694.035 453.804C694.035 453.804 694.035 453.804 694.035 453.805C694.035 453.805 694.035 453.805 694.035 453.806C694.035 453.806 694.035 453.806 694.035 453.807C694.035 453.807 694.035 453.807 694.035 453.808C694.035 453.808 694.035 453.808 694.035 453.809C694.035 453.809 694.035 453.809 694.035 453.809C694.035 453.81 694.035 453.81 694.035 453.81C694.035 453.811 694.035 453.811 694.035 453.811C694.036 453.812 694.036 453.812 694.036 453.812C694.036 453.813 694.036 453.813 694.036 453.813C694.036 453.814 694.036 453.814 694.036 453.814C694.036 453.815 694.036 453.815 694.036 453.815C694.036 453.816 694.036 453.816 694.036 453.816C694.036 453.817 694.036 453.817 694.036 453.817C694.036 453.818 694.036 453.818 694.036 453.818C694.036 453.819 694.036 453.819 694.036 453.819C694.036 453.82 694.036 453.82 694.036 453.82C694.036 453.821 694.036 453.821 694.036 453.821C694.036 453.822 694.036 453.822 694.036 453.822C694.036 453.823 694.036 453.823 694.036 453.823C694.036 453.824 694.036 453.824 694.036 453.824C694.036 453.825 694.036 453.825 694.037 453.825C694.037 453.826 694.037 453.826 694.037 453.826C694.037 453.827 694.037 453.827 694.037 453.827C694.037 453.828 694.037 453.828 694.037 453.828C694.037 453.829 694.037 453.829 694.037 453.829C694.037 453.83 694.037 453.83 694.037 453.83C694.037 453.831 694.037 453.831 694.037 453.831C694.037 453.832 694.037 453.832 694.037 453.832C694.037 453.832 694.037 453.833 694.037 453.833C694.037 453.833 694.037 453.834 694.037 453.834C694.037 453.834 694.037 453.835 694.037 453.835C694.037 453.836 694.037 453.836 694.037 453.836C694.037 453.837 694.037 453.837 694.037 453.837C694.037 453.837 694.037 453.838 694.037 453.838C694.038 453.838 694.038 453.839 694.038 453.839C694.038 453.839 694.038 453.84 694.038 453.84C694.038 453.84 694.038 453.841 694.038 453.841C694.038 453.841 694.038 453.842 694.038 453.842C694.038 453.842 694.038 453.843 694.038 453.843C694.038 453.843 694.038 453.844 694.038 453.844C694.038 453.844 694.038 453.845 694.038 453.845C694.038 453.845 694.038 453.846 694.038 453.846C694.038 453.846 694.038 453.847 694.038 453.847C694.038 453.847 694.038 453.848 694.038 453.848C694.038 453.848 694.038 453.849 694.038 453.849C694.038 453.849 694.038 453.85 694.038 453.85C694.038 453.85 694.038 453.851 694.038 453.851C694.038 453.851 694.038 453.852 694.039 453.852C694.039 453.852 694.039 453.853 694.039 453.853C694.039 453.853 694.039 453.854 694.039 453.854C694.039 453.854 694.039 453.855 694.039 453.855C694.039 453.855 694.039 453.856 694.039 453.856C694.039 453.856 694.039 453.857 694.039 453.857C694.039 453.857 694.039 453.858 694.039 453.858C694.039 453.858 694.039 453.859 694.039 453.859C694.039 453.859 694.039 453.86 694.039 453.86C694.039 453.86 694.039 453.861 694.039 453.861C694.039 453.861 694.039 453.862 694.039 453.862C694.039 453.862 694.039 453.863 694.039 453.863C694.039 453.863 694.039 453.864 694.039 453.864C694.039 453.864 694.039 453.865 694.039 453.865C694.039 453.865 694.04 453.866 694.04 453.866C694.04 453.866 694.04 453.867 694.04 453.867C694.04 453.867 694.04 453.868 694.04 453.868C694.04 453.868 694.04 453.869 694.04 453.869C694.04 453.869 694.04 453.87 694.04 453.87C694.04 453.87 694.04 453.871 694.04 453.871C694.04 453.871 694.04 453.872 694.04 453.872C694.04 453.872 694.04 453.873 694.04 453.873C694.04 453.873 694.04 453.874 694.04 453.874C694.04 453.874 694.04 453.875 694.04 453.875C694.04 453.875 694.04 453.876 694.04 453.876C694.04 453.876 694.04 453.877 694.04 453.877C694.04 453.877 694.04 453.878 694.04 453.878C694.04 453.878 694.04 453.879 694.041 453.879C694.041 453.879 694.041 453.88 694.041 453.88C694.041 453.88 694.041 453.881 694.041 453.881C694.041 453.881 694.041 453.882 694.041 453.882C694.041 453.882 694.041 453.883 694.041 453.883C694.041 453.883 694.041 453.884 694.041 453.884C694.041 453.884 694.041 453.885 694.041 453.885C694.041 453.885 694.041 453.886 694.041 453.886C694.041 453.886 694.041 453.887 694.041 453.887C694.041 453.887 694.041 453.888 694.041 453.888C694.041 453.888 694.041 453.889 694.041 453.889C694.041 453.889 694.041 453.89 694.041 453.89C694.041 453.89 694.041 453.891 694.041 453.891C694.041 453.891 694.041 453.892 694.041 453.892C694.042 453.892 694.042 453.893 694.042 453.893C694.042 453.893 694.042 453.894 694.042 453.894C694.042 453.894 694.042 453.895 694.042 453.895C694.042 453.895 694.042 453.896 694.042 453.896C694.042 453.896 694.042 453.897 694.042 453.897C694.042 453.897 694.042 453.898 694.042 453.898C694.042 453.898 694.042 453.899 694.042 453.899C694.042 453.899 694.042 453.9 694.042 453.9C694.042 453.9 694.042 453.901 694.042 453.901C694.042 453.901 694.042 453.902 694.042 453.902C694.042 453.902 694.042 453.903 694.042 453.903C694.042 453.903 694.042 453.904 694.042 453.904C694.042 453.904 694.042 453.905 694.042 453.905C694.042 453.905 694.043 453.906 694.043 453.906C694.043 453.906 694.043 453.907 694.043 453.907C694.043 453.907 694.043 453.908 694.043 453.908C694.043 453.908 694.043 453.909 694.043 453.909C694.043 453.909 694.043 453.91 694.043 453.91C694.043 453.91 694.043 453.911 694.043 453.911C694.043 453.911 694.043 453.912 694.043 453.912C694.043 453.912 694.043 453.913 694.043 453.913C694.043 453.913 694.043 453.914 694.043 453.914C694.043 453.914 694.043 453.915 694.043 453.915C694.043 453.915 694.043 453.916 694.043 453.916C694.043 453.916 694.043 453.917 694.043 453.917C694.043 453.917 694.043 453.918 694.043 453.918C694.043 453.918 694.043 453.919 694.044 453.919C694.044 453.92 694.044 453.92 694.044 453.92C694.044 453.921 694.044 453.921 694.044 453.921C694.044 453.921 694.044 453.922 694.044 453.922C694.044 453.923 694.044 453.923 694.044 453.923C694.044 453.924 694.044 453.924 694.044 453.924C694.044 453.925 694.044 453.925 694.044 453.925C694.044 453.926 694.044 453.926 694.044 453.926C694.044 453.927 694.044 453.927 694.044 453.927C694.044 453.928 694.044 453.928 694.044 453.928C694.044 453.929 694.044 453.929 694.044 453.929C694.044 453.93 694.044 453.93 694.044 453.93C694.044 453.931 694.044 453.931 694.044 453.931C694.044 453.932 694.044 453.932 694.045 453.932C694.045 453.933 694.045 453.933 694.045 453.933C694.045 453.934 694.045 453.934 694.045 453.934C694.045 453.935 694.045 453.935 694.045 453.935C694.045 453.936 694.045 453.936 694.045 453.936C694.045 453.937 694.045 453.937 694.045 453.937C694.045 453.938 694.045 453.938 694.045 453.938C694.045 453.939 694.045 453.939 694.045 453.939C694.045 453.94 694.045 453.94 694.045 453.94C694.045 453.941 694.045 453.941 694.045 453.942C694.045 453.942 694.045 453.942 694.045 453.943C694.045 453.943 694.045 453.943 694.045 453.944C694.045 453.944 694.045 453.944 694.045 453.945C694.045 453.945 694.045 453.945 694.045 453.946C694.046 453.946 694.046 453.946 694.046 453.947C694.046 453.947 694.046 453.947 694.046 453.948C694.046 453.948 694.046 453.948 694.046 453.949C694.046 453.949 694.046 453.949 694.046 453.95C694.046 453.95 694.046 453.95 694.046 453.951C694.046 453.951 694.046 453.951 694.046 453.952C694.046 453.952 694.046 453.952 694.046 453.953C694.046 453.953 694.046 453.953 694.046 453.954C694.046 453.954 694.046 453.954 694.046 453.955C694.046 453.955 694.046 453.955 694.046 453.956C694.046 453.956 694.046 453.957 694.046 453.957C694.046 453.957 694.046 453.958 694.046 453.958L697.038 453.735ZM694.009 453.45L694.046 453.958L697.038 453.735L697 453.227L694.009 453.45ZM695.659 455.342L2262.23 333.465L2262 330.474L695.426 452.351L695.659 455.342ZM2260.62 332.081L2260.95 336.478L2263.94 336.254L2263.61 331.858L2260.62 332.081ZM2260.95 336.478C2273.97 511.008 2259.62 685.326 2218.31 854.58L2221.22 855.292C2262.61 685.73 2276.98 511.097 2263.94 336.254L2260.95 336.478ZM2220.12 853.479L605.864 459.441L605.153 462.355L2219.41 856.393L2220.12 853.479ZM604.719 462.173L2017.36 1337L2018.94 1334.45L606.298 459.623L604.719 462.173ZM2016.87 1334.93C1925.16 1483.03 1811.33 1615.26 1678.54 1727.98L1680.48 1730.27C1813.51 1617.35 1927.54 1484.88 2019.42 1336.51L2016.87 1334.93ZM1680.66 1728.16L605.359 461.486L603.072 463.427L1678.37 1730.1L1680.66 1728.16ZM602.827 463.025L1232.7 2000.63L1235.47 1999.49L605.604 461.888L602.827 463.025ZM1233.52 1998.67C1072.32 2064.71 902.106 2104.83 727.616 2117.93L727.841 2120.93C902.642 2107.8 1073.17 2067.61 1234.65 2001.45L1233.52 1998.67ZM727.474 2120.91L727.545 2120.92L728.055 2117.96L727.984 2117.95L727.474 2120.91ZM605.164 463.836L662.511 531.252L664.796 529.308L607.449 461.892L605.164 463.836ZM664.625 531.422C671.785 525.335 677.933 518.176 682.872 510.176L680.319 508.6C675.545 516.333 669.602 523.253 662.682 529.137L664.625 531.422ZM682.384 508.112L607.095 461.588L605.518 464.14L680.807 510.664L682.384 508.112ZM603.407 461.783L603.445 461.833L605.812 459.989L605.773 459.939L603.407 461.783ZM604.74 462.407L605.476 462.352L605.253 459.36L604.517 459.415L604.74 462.407ZM605.731 459.401L605.569 459.361L604.836 462.27L604.998 462.31L605.731 459.401ZM605.091 459.319L604.478 459.365L604.701 462.357L605.314 462.311L605.091 459.319ZM602.034 460.971L602.162 461.26L604.909 460.055L604.781 459.765L602.034 460.971ZM604.672 461.636L604.866 461.411L602.593 459.453L602.399 459.679L604.672 461.636ZM604.122 458.984L603.817 458.901L603.032 461.797L603.337 461.879L604.122 458.984ZM602.288 459.37L602.271 459.389L604.545 461.347L604.561 461.328L602.288 459.37ZM604.141 461.694L604.176 461.691L603.953 458.699L603.918 458.702L604.141 461.694ZM604.929 461.421L605.097 461.303L603.367 458.852L603.199 458.97L604.929 461.421ZM604.12 458.581L603.822 458.604L604.046 461.595L604.343 461.573L604.12 458.581ZM602.856 461.143L602.952 461.241L605.107 459.155L605.012 459.056L602.856 461.143ZM603.322 461.572L603.538 461.627L604.271 458.717L604.055 458.663L603.322 461.572ZM605.167 460.981L605.214 460.907L602.689 459.289L602.641 459.363L605.167 460.981ZM603.84 458.602L603.577 458.622L603.8 461.614L604.063 461.594L603.84 458.602ZM209.588 2075.59C39.7321 2034.23 -121.935 1966.53 -270.906 1874.39L-272.484 1876.94C-123.245 1969.25 38.7149 2037.07 208.879 2078.5L209.588 2075.59ZM-270.42 1876.46L556.243 540.04L553.692 538.462L-272.971 1874.88L-270.42 1876.46ZM554.197 540.538C562.332 545.41 571.247 549.057 580.736 551.406L581.457 548.494C572.246 546.214 563.609 542.679 555.739 537.964L554.197 540.538ZM579.639 549.595L207.759 2076.69L210.674 2077.4L582.554 550.305L579.639 549.595ZM209.328 2078.54L209.345 2078.54L209.122 2075.55L209.104 2075.55L209.328 2078.54ZM-664.136 1536.25C-777.56 1402.79 -868.697 1253.12 -935.057 1091.39L-937.833 1092.53C-871.353 1254.55 -780.05 1404.5 -666.422 1538.2L-664.136 1536.25ZM-935.876 1093.34L518.233 496.795L517.095 494.019L-937.014 1090.57L-935.876 1093.34ZM516.278 495.98C520.01 505.018 524.975 513.291 530.998 520.61L533.314 518.703C527.482 511.617 522.671 503.602 519.05 494.834L516.278 495.98ZM531.185 518.513L-666.252 1536.06L-664.309 1538.35L533.127 520.8L531.185 518.513ZM-666.776 1537.32L-666.775 1537.34L-663.783 1537.11L-663.785 1537.1L-666.776 1537.32ZM-1054.5 586.628L-1054.71 583.843L-1057.7 584.066L-1057.49 586.851L-1054.5 586.628ZM-1054.71 583.843C-1067.68 409.907 -1053.47 236.163 -1012.49 67.4255L-1015.4 66.7173C-1056.46 235.76 -1070.7 409.819 -1057.7 584.066L-1054.71 583.843ZM-1014.3 68.529L595.495 459.677L596.203 456.761L-1013.59 65.6137L-1014.3 68.529ZM595.961 459.715L598.553 459.521L598.33 456.53L595.738 456.723L595.961 459.715ZM599.23 456.749L-811.997 -415.241L-813.574 -412.688L597.653 459.302L599.23 456.749ZM-811.51 -413.176C-719.96 -561.347 -606.252 -693.712 -473.596 -806.583L-475.54 -808.868C-608.435 -695.794 -722.347 -563.19 -814.062 -414.753L-811.51 -413.176ZM-475.711 -806.753L600.8 458.701L603.085 456.757L-473.426 -808.697L-475.711 -806.753ZM602.054 459.225L602.107 459.221L601.884 456.229L601.831 456.233L602.054 459.225ZM603.383 457.155L-28.0508 -1079.68L-30.8258 -1078.54L600.608 458.295L603.383 457.155ZM-28.8683 -1077.72C132.276 -1143.93 302.464 -1184.24 476.94 -1197.52L476.712 -1200.52C301.924 -1187.21 131.428 -1146.83 -30.0083 -1080.5L-28.8683 -1077.72ZM475.33 -1198.91L594.597 367.86L597.588 367.633L478.321 -1199.13L475.33 -1198.91ZM595.981 366.251C589.494 366.735 579.378 368.352 567.687 373.138L568.824 375.915C580.175 371.267 589.974 369.707 596.204 369.242L595.981 366.251ZM566.868 375.095L600.94 458.269L603.716 457.132L569.644 373.958L566.868 375.095ZM602.44 459.196L603.053 459.15L602.83 456.159L602.217 456.204L602.44 459.196ZM601.449 457.803L601.588 459.202L604.573 458.904L604.434 457.506L601.449 457.803ZM601.774 458.316L601.743 458.372L604.356 459.845L604.387 459.79L601.774 458.316ZM601.56 459.28L601.66 460.153L604.64 459.81L604.54 458.937L601.56 459.28ZM604.646 459.87L604.621 459.537L601.629 459.761L601.654 460.093L604.646 459.87ZM601.741 460.228L601.87 460.535L604.638 459.378L604.509 459.07L601.741 460.228ZM603.142 458.461L603.072 458.466L603.295 461.457L603.365 461.452L603.142 458.461ZM602.51 461.302L602.602 461.348L603.949 458.668L603.858 458.621L602.51 461.302ZM601.851 460.479L601.897 460.617L604.745 459.674L604.7 459.536L601.851 460.479ZM603.209 458.649L603.052 458.661L603.275 461.653L603.433 461.641L603.209 458.649ZM604.659 460.045L604.647 459.888L601.656 460.111L601.667 460.269L604.659 460.045ZM603.04 458.503L603.005 458.506L603.228 461.498L603.263 461.495L603.04 458.503ZM601.621 460.113L601.632 460.271L604.624 460.048L604.612 459.89L601.621 460.113ZM603.017 458.664L510.628 465.556L510.851 468.548L603.24 461.655L603.017 458.664ZM509.244 467.164L509.304 467.97L512.296 467.746L512.236 466.941L509.244 467.164ZM510.688 466.362L-180.368 517.919L-180.145 520.91L510.911 469.354L510.688 466.362ZM-180.368 517.919L-1056.26 583.194L-1056.04 586.186L-180.145 520.91L-180.368 517.919ZM-1057.64 584.802L-1057.49 586.851L-1054.5 586.628L-1054.65 584.578L-1057.64 584.802ZM511.846 438.022C509.164 449.038 508.825 458.421 509.112 464.909L512.109 464.776C511.832 458.517 512.158 449.425 514.761 438.732L511.846 438.022ZM510.726 466.338L595.002 459.786L594.77 456.795L510.494 463.347L510.726 466.338ZM595.242 456.834L513.659 436.92L512.948 439.834L594.53 459.748L595.242 456.834ZM541.769 388.832C534.592 394.921 528.442 402.062 523.486 410.063L526.036 411.643C530.828 403.908 536.771 397.006 543.709 391.12L541.769 388.832ZM523.972 412.128L599.249 458.741L600.828 456.191L525.551 409.578L523.972 412.128ZM601.182 456.495L543.882 389.006L541.595 390.947L598.895 458.437L601.182 456.495ZM604.846 460.278L604.927 459.955L602.019 459.221L601.937 459.544L604.846 460.278ZM602.494 460.724L602.72 460.919L604.678 458.646L604.452 458.451L602.494 460.724ZM603.096 458.409L602.806 458.536L604.012 461.283L604.302 461.156L603.096 458.409ZM603.297 458.414L603.28 458.415L603.503 461.407L603.521 461.405L603.297 458.414ZM604.616 459.467L604.6 459.257L601.609 459.48L601.624 459.69L604.616 459.467ZM602.368 460.675L602.423 460.706L603.896 458.093L603.841 458.062L602.368 460.675ZM601.695 459.077L601.655 459.256L604.585 459.902L604.624 459.723L601.695 459.077ZM604.599 459.239L604.578 458.959L601.586 459.182L601.607 459.463L604.599 459.239ZM601.899 459.993L602.016 460.143L604.382 458.298L604.265 458.148L601.899 459.993ZM601.991 458.332L601.895 458.462L604.311 460.24L604.407 460.109L601.991 458.332ZM606.394 460.198L608.465 458.441L606.524 456.154L604.453 457.911L606.394 460.198ZM607.606 458.793L610.339 458.589L610.116 455.597L607.383 455.801L607.606 458.793ZM609.66 455.705L604.857 457.666L605.991 460.443L610.794 458.482L609.66 455.705ZM604.575 458.924L604.471 457.523L601.479 457.746L601.584 459.147L604.575 458.924ZM603.087 459.13L603.717 459.083L603.494 456.092L602.863 456.139L603.087 459.13ZM602.147 457.236L601.905 458.24L604.822 458.943L605.064 457.939L602.147 457.236ZM602.1 457.784L601.816 458.228L604.343 459.844L604.627 459.4L602.1 457.784ZM689.989 424.248C686.239 415.212 681.275 406.94 675.233 399.621L672.919 401.531C678.768 408.615 683.58 416.63 687.218 425.398L689.989 424.248ZM675.049 401.718L1871.44 -617.111L1869.49 -619.395L673.104 399.434L675.049 401.718ZM1869.32 -617.281C1982.88 -483.937 2074.17 -334.36 2140.7 -172.711L2143.47 -173.853C2076.82 -335.794 1985.37 -485.642 1871.61 -619.226L1869.32 -617.281ZM2141.51 -174.669L688.031 423.419L689.173 426.193L2142.66 -171.895L2141.51 -174.669ZM687.106 424.917L687.107 424.935L690.099 424.712L690.098 424.694L687.106 424.917ZM652.019 379.713C643.882 374.84 634.951 371.213 625.464 368.865L624.743 371.777C633.956 374.058 642.609 377.574 650.478 382.287L652.019 379.713ZM626.561 370.674L996.864 -1156.8L993.948 -1157.51L623.645 369.967L626.561 370.674ZM995.052 -1155.7C1164.97 -1114.5 1326.69 -1046.98 1475.74 -954.988L1477.31 -957.541C1328 -1049.7 1165.98 -1117.34 995.759 -1158.61L995.052 -1155.7ZM1475.25 -957.052L649.972 380.212L652.525 381.788L1477.8 -955.477L1475.25 -957.052Z" fill="black" mask="url(#path-1-inside-1_116_648)"/>
</g>
</g>
<defs>
<clipPath id="clip0_116_648">
<rect width="1920" height="961" fill="white"/>
</clipPath>
</defs>
</svg>
