<svg width="364" height="141" viewBox="0 0 364 141" fill="none" xmlns="http://www.w3.org/2000/svg">
<path d="M44.1848 82.6006C49.986 82.1124 56.1681 81.5985 63.0296 81.2299C61.0732 73.5194 58.552 65.9428 55.0788 58.4306C52.0672 61.982 47.8686 72.0218 44.1848 82.6006ZM65.3117 90.9268C56.3298 91.0563 47.9078 92.3914 40.7042 93.357C37.9775 102.532 36.1448 110.786 36.2944 114.41L26.0133 116.54C25.5302 109.4 37.4231 49.1044 52.8647 46.9118C60.7219 45.7107 69.1453 58.531 77.8247 99.1664L80.9271 116.746L70.7412 118.87C68.7576 109.344 67.2694 100.072 65.3117 90.9268ZM98.8713 53.9372C99.3429 62.322 99.5956 67.4697 99.7388 70.9989C100.304 70.865 101.059 70.7183 102.093 70.457C119.526 66.5994 126.25 61.3623 125.292 55.6884C124.245 50.1162 116.322 48.9307 98.8713 53.9372ZM100.785 82.2142C101.226 85.9144 101.968 91.2203 103.432 101.546C117.382 99.9331 143.053 94.8485 137.793 83.5359C132.538 72.3184 109.555 80.3773 100.785 82.2142ZM88.0283 46.3498C132.504 30.8112 145.144 52.241 129.228 68.621C149.72 70.3908 161.829 93.8651 125.863 106.533C115.774 110.085 105.454 111.644 94.8291 112.936C92.3517 91.8709 89.079 68.9465 88.0283 46.3498ZM184.626 49.187C165.009 46.2103 166.045 92.6234 185.932 92.5212C200.367 92.4053 216.325 54.0243 184.626 49.187ZM190.664 101.67L190.854 101.657C155.78 110.534 152.076 50.146 173.68 40.0763C209.566 23.3972 231.755 91.238 190.664 101.67ZM223.252 41.2174L233.712 40.3184C233.712 40.3184 233.508 116.465 255.047 92.7226C260.735 86.3121 255.836 49.2467 254.417 39.587L264.795 38.8848C266.566 52.3464 273.887 92.6912 259.634 102.551C223.274 127.774 224.509 54.14 223.252 41.2174ZM328.106 40.244L310.112 41.4616C312.023 61.2263 314.462 81.7204 315.687 101.245L305.214 101.953C303.976 82.2386 301.556 62.0301 299.734 42.1637L279.455 43.5359L278.746 33.063L327.397 29.7711L328.106 40.244Z" fill="black"/>
<path d="M2 108C5.07101 118.06 9.45207 129.116 19.3897 134.085" stroke="black" stroke-width="3" stroke-linecap="round"/>
<path d="M311 12.8057C322.263 10.8347 341.94 8.84877 351.704 16.3395C355.626 19.348 356.73 28.3904 358.117 32.8306" stroke="black" stroke-width="3" stroke-linecap="round"/>
<path d="M341 2.43306C343.881 2.05528 347.212 1.60667 350.02 2.61756C351.4 3.11436 353.562 2.87823 354.653 3.90907C357.485 6.58346 361.152 9.75217 362.402 13.5031" stroke="black" stroke-width="3" stroke-linecap="round"/>
</svg>
